<svg width="1271" height="890" viewBox="0 0 1271 890" fill="none" xmlns="http://www.w3.org/2000/svg">
<g clip-path="url(#clip0_26_212)">
<path d="M118.671 814.074H118.099C119.38 809.922 118.145 804.866 114.793 802.094C114.878 797.704 112.252 793.045 108.048 791.676C107.018 786.926 102.91 783.807 98.98 783.749C96.5706 779.843 91.9085 778.31 88.0487 779.713C84.8052 776.961 80.0312 776.82 76.6225 779.712C72.7704 778.313 68.1042 779.836 65.6914 783.749C61.7838 783.807 57.658 786.906 56.624 791.676C52.418 793.044 49.7941 797.706 49.878 802.094C46.5558 804.842 45.2787 809.882 46.5725 814.074H46.0004C44.3282 814.074 42.9724 815.438 42.9724 817.121V831.337C42.9724 843.252 50.5666 853.414 61.1401 857.186V861.801C61.14 866.84 65.215 870.94 70.2238 870.94H94.4474C99.4562 870.94 103.531 866.84 103.531 861.801V857.186C114.105 853.414 121.699 843.252 121.699 831.337V817.121C121.699 815.438 120.343 814.074 118.671 814.074ZM54.2357 806.311C55.5228 805.729 56.2225 804.314 55.9064 802.93C55.3447 800.47 57.0062 797.153 59.2516 797.227C60.9589 797.279 62.355 795.869 62.2977 794.153C62.1964 791.115 64.8172 789.247 66.5092 789.817C68.0843 790.346 69.7788 789.467 70.2702 787.88C71.0864 785.245 73.8554 784.491 75.378 785.75C76.741 786.877 78.7795 786.56 79.739 785.068C81.0402 783.045 83.6245 783.037 84.9323 785.069C85.891 786.559 87.928 786.878 89.2927 785.751C90.8219 784.487 93.5874 785.254 94.4015 787.88C94.895 789.472 96.5926 790.344 98.1624 789.817C99.8041 789.264 102.477 791.068 102.374 794.153C102.317 795.865 103.708 797.279 105.419 797.227C107.671 797.146 109.323 800.486 108.765 802.93C108.449 804.314 109.148 805.73 110.435 806.311C112.574 807.278 113.416 811.279 111.945 813.373C111.705 813.715 111.428 813.957 111.155 814.074H53.5156C51.28 813.115 51.5096 807.543 54.2357 806.311ZM97.4754 861.801C97.4754 863.481 96.1171 864.847 94.4474 864.847H70.2238C68.5541 864.847 67.1958 863.481 67.1958 861.801V858.584C68.1905 858.695 69.2003 858.755 70.2238 858.755H94.4474C95.4709 858.755 96.4807 858.696 97.4754 858.584V861.801V861.801ZM115.643 831.337C115.643 843.096 106.135 852.662 94.4476 852.662H70.2238C58.5365 852.662 49.0283 843.095 49.0283 831.337V820.167H115.643V831.337V831.337Z" fill="black"/>
<path d="M70.2238 840.476C65.215 840.476 61.14 836.376 61.14 831.337C61.14 829.655 59.7843 828.291 58.1119 828.291C56.4397 828.291 55.0839 829.655 55.0839 831.337C55.0839 839.736 61.8757 846.569 70.2236 846.569C71.896 846.569 73.2516 845.205 73.2516 843.523C73.2518 841.84 71.896 840.476 70.2238 840.476Z" fill="black"/>
<path d="M82.3362 807.983C84.0085 807.983 85.3642 806.619 85.3642 804.936C85.3642 803.254 84.0085 801.89 82.3362 801.89C80.6639 801.89 79.3082 803.254 79.3082 804.936C79.3082 806.619 80.6639 807.983 82.3362 807.983Z" fill="black"/>
<path d="M94.4479 801.888C96.1202 801.888 97.4759 800.524 97.4759 798.841C97.4759 797.159 96.1202 795.795 94.4479 795.795C92.7756 795.795 91.4199 797.159 91.4199 798.841C91.4199 800.524 92.7756 801.888 94.4479 801.888Z" fill="black"/>
<path d="M70.2244 801.888C71.8967 801.888 73.2524 800.524 73.2524 798.841C73.2524 797.159 71.8967 795.795 70.2244 795.795C68.552 795.795 67.1964 797.159 67.1964 798.841C67.1964 800.524 68.552 801.888 70.2244 801.888Z" fill="black"/>
</g>
<g clip-path="url(#clip1_26_212)">
<path d="M464.334 481.436H379.424C377.497 481.436 376.084 483.261 376.551 485.139L377.269 488.03C378.728 493.9 383.509 498.204 389.297 499.129V511.237H380.411C378.776 511.237 377.449 512.571 377.449 514.217V526.137C377.449 527.782 378.776 529.117 380.411 529.117H389.297V555.621L386.903 566.863H383.373C381.737 566.863 380.411 568.198 380.411 569.843C380.411 571.489 381.737 572.823 383.373 572.823C384.573 572.823 411.751 572.823 412.993 572.823C414.629 572.823 415.955 571.489 415.955 569.843C415.955 568.198 414.629 566.863 412.993 566.863H409.463L407.069 555.621V529.117H436.689V555.621L434.294 566.863H430.765C429.129 566.863 427.803 568.198 427.803 569.843C427.803 571.489 429.129 572.823 430.765 572.823C431.965 572.823 459.142 572.823 460.385 572.823C462.02 572.823 463.347 571.489 463.347 569.843C463.347 568.198 462.02 566.863 460.385 566.863H456.855L454.461 555.621V529.117H463.347C464.983 529.117 466.309 527.782 466.309 526.137V514.217C466.309 512.571 464.983 511.237 463.347 511.237H454.461V499.129C460.249 498.204 465.03 493.9 466.489 488.03L467.208 485.139C467.675 483.258 466.257 481.436 464.334 481.436ZM389.297 523.157H383.373V517.197H389.297V523.157ZM454.461 517.197H460.385V523.156H454.461V517.197ZM392.961 566.863L394.654 558.917H401.713L403.405 566.863H392.961ZM395.221 552.957V499.316H401.145V552.957H395.221ZM436.689 523.157H407.069V517.197C409.976 517.197 433.746 517.197 436.689 517.197V523.157ZM407.069 511.237V499.316H412.993V511.237H407.069ZM418.917 511.237V499.316H424.841V511.237H418.917ZM436.689 511.237H430.765V499.316H436.689V511.237ZM440.353 566.863L442.046 558.917H449.104L450.797 566.863H440.353ZM442.613 552.957V499.316H448.537V552.957H442.613ZM452.121 493.357C449.233 493.357 394.59 493.357 391.637 493.357C387.835 493.357 384.501 490.945 383.258 487.397H460.5C459.257 490.945 455.923 493.357 452.121 493.357Z" fill="black"/>
</g>
<g clip-path="url(#clip2_26_212)">
<path d="M403.151 820.465C404.787 820.465 406.113 819.131 406.113 817.485C406.113 815.839 404.787 814.505 403.151 814.505C401.515 814.505 400.189 815.839 400.189 817.485C400.189 819.131 401.515 820.465 403.151 820.465Z" fill="black"/>
<path d="M437.709 820.465C439.345 820.465 440.671 819.131 440.671 817.485C440.671 815.839 439.345 814.505 437.709 814.505C436.073 814.505 434.747 815.839 434.747 817.485C434.747 819.131 436.073 820.465 437.709 820.465Z" fill="black"/>
<path d="M419.936 808.544C421.572 808.544 422.898 807.21 422.898 805.564C422.898 803.918 421.572 802.584 419.936 802.584C418.3 802.584 416.974 803.918 416.974 805.564C416.974 807.21 418.3 808.544 419.936 808.544Z" fill="black"/>
<path d="M464.415 865.969C464.149 865.719 458.769 860.723 450.975 857.985C457.897 847.948 457.261 834.863 457.226 834.24C457.141 832.723 455.935 831.513 454.428 831.432C453.919 831.405 443.148 830.89 433.572 835.696C430.24 825.677 422.309 818.594 421.886 818.221C420.769 817.239 419.102 817.239 417.986 818.221C417.562 818.594 409.632 825.677 406.3 835.696C396.723 830.89 385.953 831.404 385.444 831.432C383.936 831.513 382.731 832.723 382.646 834.24C382.611 834.863 381.975 847.947 388.896 857.985C381.102 860.723 375.723 865.719 375.456 865.969C374.204 867.148 374.206 869.147 375.456 870.323C375.879 870.721 385.961 880.067 398.708 880.067C401.576 880.067 404.308 879.593 406.826 878.855C410.308 882.837 417.398 885.346 419.013 885.878C419.612 886.076 420.259 886.076 420.859 885.878C422.474 885.346 429.564 882.838 433.045 878.855C435.564 879.593 438.296 880.067 441.164 880.067C453.911 880.067 463.992 870.721 464.415 870.323C465.668 869.145 465.666 867.146 464.415 865.969ZM419.94 824.664C423.131 828.106 429.105 835.701 429.105 844.305C429.105 852.873 423.12 860.495 419.932 863.947C416.741 860.504 410.768 852.909 410.768 844.305C410.768 835.737 416.752 828.115 419.94 824.664ZM398.708 874.106C391.825 874.106 385.655 870.556 382.259 868.145C384.727 866.392 388.66 864.043 393.263 862.889C398.776 867.676 405.823 869.703 411.312 870.547C407.912 872.398 403.481 874.106 398.708 874.106ZM395.968 857.274C390.09 851.247 388.839 842.032 388.598 837.416C392.368 837.599 399.217 838.416 404.976 841.744C404.117 850.123 407.662 858.106 412.817 864.741C400.933 863.095 396.619 857.775 395.968 857.274ZM419.936 879.893C417.423 878.975 414.775 877.672 412.965 876.413C415.965 874.905 418.368 873.229 419.936 872.016C421.503 873.229 423.907 874.905 426.907 876.413C425.096 877.673 422.448 878.975 419.936 879.893ZM434.895 841.744C440.659 838.414 447.514 837.597 451.28 837.416C451.049 842.024 449.811 851.22 443.904 857.274C443.255 857.773 438.968 863.066 427.065 864.728C432.226 858.079 435.752 850.104 434.895 841.744ZM441.164 874.106C436.39 874.106 431.959 872.398 428.559 870.547C434.049 869.703 441.096 867.676 446.609 862.889C451.213 864.043 455.146 866.393 457.613 868.145C454.216 870.557 448.046 874.106 441.164 874.106Z" fill="black"/>
</g>
<g clip-path="url(#clip3_26_212)">
<path d="M87.4881 588.099C90.3826 583.678 90.5328 578.09 87.6491 573.501L71.4989 546.522C71.4862 546.5 71.4731 546.479 71.4597 546.458C66.3438 538.382 54.7742 538.389 49.6624 546.458C49.6491 546.479 49.6361 546.5 49.6233 546.522L44.9324 554.358L40.2415 546.522C40.2289 546.5 40.2157 546.479 40.2024 546.458C35.0864 538.382 23.517 538.389 18.4053 546.458C18.3919 546.479 18.3789 546.5 18.3661 546.522L2.21573 573.501C-0.668545 578.091 -0.517249 583.679 2.3765 588.099C1.02327 588.36 0 589.556 0 590.993C0 599.121 6.57277 605.734 14.6518 605.734H75.2128C83.2919 605.734 89.8646 599.121 89.8646 590.993C89.8648 589.556 88.8416 588.36 87.4881 588.099ZM7.18111 576.634C7.19393 576.614 7.20656 576.593 7.21885 576.573L23.3657 549.599C26.1814 545.198 32.4279 545.201 35.2416 549.599L42.403 561.562C42.4062 561.568 42.4095 561.573 42.4127 561.578L51.3886 576.573C51.4009 576.593 51.4136 576.614 51.4264 576.634C52.8923 578.952 53.0015 581.785 51.719 584.209C50.4286 586.647 48.1503 588.045 45.4686 588.045H41.0252V573.304C41.0252 568.427 37.0815 564.46 32.2341 564.46H26.3734C21.526 564.46 17.5823 568.427 17.5823 573.304V588.045H13.1389C7.42771 588.045 4.0899 581.523 7.18111 576.634ZM35.1645 573.304V588.045H23.443V573.304C23.443 571.678 24.7576 570.356 26.3734 570.356H32.2341C33.8499 570.356 35.1645 571.678 35.1645 573.304ZM75.213 599.838H14.6518C10.8313 599.838 7.57216 597.373 6.36285 593.941C9.11988 593.941 78.5942 593.941 83.5018 593.941C82.2925 597.373 79.0337 599.838 75.213 599.838ZM56.3914 573.501L55.247 571.589C55.785 570.833 56.6628 570.356 57.6306 570.356H63.4913C65.1071 570.356 66.4217 571.678 66.4217 573.304V588.045H56.2654C56.4872 587.702 56.6973 587.348 56.8922 586.98C59.1742 582.666 58.9862 577.63 56.3914 573.501ZM76.7258 588.045H72.2826V573.304C72.2826 568.427 68.3389 564.459 63.4914 564.459H57.6307C55.5782 564.459 53.6593 565.176 52.1397 566.398L48.3532 560.073L54.6231 549.598C57.4385 545.198 63.6856 545.201 66.4993 549.598L82.6458 576.572C82.6581 576.593 82.6707 576.614 82.6835 576.634C85.7744 581.522 82.4382 588.045 76.7258 588.045Z" fill="black"/>
</g>
<g clip-path="url(#clip4_26_212)">
<path d="M505.329 715.364C500.481 715.364 496.537 711.397 496.537 706.52C496.537 704.892 495.226 703.571 493.607 703.571C491.989 703.571 490.677 704.891 490.677 706.52C490.677 714.648 497.249 721.261 505.328 721.261C506.947 721.261 508.259 719.941 508.259 718.313C508.259 716.684 506.947 715.364 505.329 715.364Z" fill="black"/>
<path d="M565.89 674.089H531.702V668.193H565.89C567.508 668.193 568.82 666.873 568.82 665.245C568.82 663.617 567.508 662.296 565.89 662.296H531.198C529.988 658.865 526.731 656.4 522.911 656.4C520.661 656.4 518.607 657.256 517.05 658.659C515.494 657.256 513.439 656.4 511.189 656.4C508.94 656.4 506.885 657.256 505.329 658.659C503.772 657.256 501.718 656.4 499.468 656.4C495.648 656.4 492.391 658.865 491.181 662.296H481.886C480.267 662.297 478.955 663.617 478.955 665.245C478.955 666.873 480.267 668.193 481.886 668.193H490.677V674.089H481.886C480.267 674.089 478.955 675.409 478.955 677.038C478.955 678.666 480.267 679.986 481.886 679.986H490.677V691.042C490.677 691.291 490.692 691.537 490.718 691.779H481.886C480.267 691.779 478.955 693.099 478.955 694.727V706.52C478.955 718.051 486.305 727.885 496.537 731.536V736.002C496.537 740.879 500.481 744.847 505.329 744.847H528.772C533.619 744.847 537.563 740.879 537.563 736.002V731.536C547.796 727.885 555.145 718.051 555.145 706.52V694.727C555.145 693.099 553.833 691.779 552.215 691.779H531.66C531.687 691.537 531.702 691.291 531.702 691.042V679.986H565.89C567.508 679.986 568.82 678.666 568.82 677.037C568.82 675.409 567.508 674.089 565.89 674.089ZM519.98 665.245C519.98 663.619 521.295 662.296 522.911 662.296C524.527 662.296 525.841 663.619 525.841 665.245V691.042C525.841 691.448 525.513 691.779 525.109 691.779H520.713C520.309 691.779 519.98 691.448 519.98 691.042V665.245V665.245ZM508.259 665.245C508.259 663.619 509.574 662.296 511.189 662.296C512.805 662.296 514.12 663.619 514.12 665.245V691.042C514.12 691.448 513.791 691.779 513.387 691.779H508.991C508.587 691.779 508.259 691.448 508.259 691.042V665.245H508.259ZM496.537 665.245C496.537 663.619 497.852 662.296 499.468 662.296C501.084 662.296 502.398 663.619 502.398 665.245V691.042C502.398 691.448 502.07 691.779 501.666 691.779H497.27C496.866 691.779 496.538 691.448 496.538 691.042V665.245H496.537ZM531.702 736.002C531.702 737.628 530.387 738.95 528.772 738.95H505.329C503.713 738.95 502.398 737.628 502.398 736.002V733.054H505.329H528.772H531.702V736.002V736.002ZM549.284 697.675V706.52C549.284 717.899 540.082 727.157 528.772 727.157H505.329C494.018 727.157 484.816 717.899 484.816 706.52V697.675C485.406 697.675 548.612 697.675 549.284 697.675Z" fill="black"/>
</g>
<g clip-path="url(#clip5_26_212)">
<path d="M293.699 686.701L282.285 675.218L295.253 662.171C296.412 661.005 296.412 659.114 295.253 657.948C294.094 656.782 292.214 656.782 291.055 657.948L278.088 670.995L266.674 659.511C263.779 656.599 259.306 656.045 255.796 658.164L241.29 666.921C239.419 668.05 237.688 669.41 236.144 670.962L208.079 699.199C204.607 702.692 204.607 708.375 208.079 711.868L241.659 745.653C245.13 749.146 250.78 749.147 254.252 745.653L282.317 717.417C283.86 715.865 285.212 714.123 286.334 712.241L295.039 697.645C297.145 694.114 296.594 689.613 293.699 686.701ZM289.949 694.572L281.244 709.168C280.371 710.632 279.32 711.987 278.12 713.194L250.055 741.43C248.894 742.597 247.017 742.597 245.857 741.43L212.276 707.645C211.119 706.481 211.119 704.586 212.276 703.422L240.341 675.186C241.542 673.978 242.888 672.92 244.343 672.042L258.85 663.285C260.019 662.579 261.51 662.763 262.476 663.734L273.89 675.218L267.318 681.83L266.383 677.129C265.738 673.883 263.381 671.271 260.232 670.311C257.084 669.352 253.682 670.21 251.355 672.551L250.252 673.662L250.252 673.661C247.925 676.002 247.072 679.424 248.026 682.592C248.979 685.76 251.575 688.132 254.802 688.781L262.973 690.425L264.607 698.646C265.252 701.892 267.609 704.504 270.758 705.463C273.914 706.425 277.314 705.558 279.635 703.223L280.738 702.113C283.065 699.772 283.918 696.35 282.964 693.182C282.011 690.014 279.415 687.643 276.188 686.994L271.515 686.053L278.087 679.441L289.502 690.925C290.467 691.895 290.651 693.395 289.949 694.572ZM261.712 684.08L255.966 682.924C254.392 682.608 253.862 681.376 253.707 680.861C253.553 680.347 253.315 679.026 254.449 677.885C254.449 677.885 254.449 677.885 254.45 677.884L255.553 676.774C256.399 675.923 257.499 675.719 258.512 676.028C259.024 676.184 260.248 676.717 260.563 678.3L261.712 684.08ZM269.279 691.694L275.025 692.85C276.598 693.167 277.128 694.398 277.283 694.913C277.438 695.427 277.676 696.748 276.541 697.89L275.437 699C274.303 700.142 272.991 699.903 272.479 699.747C271.967 699.591 270.743 699.057 270.428 697.474L269.279 691.694Z" fill="black"/>
<path d="M267.594 711.114L242.408 685.775C241.25 684.609 239.37 684.609 238.211 685.775L220.671 703.422C219.512 704.588 219.512 706.479 220.671 707.645L245.857 732.984C247.016 734.15 248.895 734.15 250.054 732.984L267.594 715.337C268.753 714.171 268.753 712.28 267.594 711.114ZM247.955 726.649L226.968 705.533L240.31 692.11L261.297 713.226L247.955 726.649Z" fill="black"/>
</g>
<g clip-path="url(#clip6_26_212)">
<path d="M118.671 332.639H118.099C119.38 328.487 118.145 323.431 114.793 320.659C114.878 316.269 112.252 311.61 108.048 310.241C107.018 305.491 102.91 302.372 98.98 302.314C96.5706 298.408 91.9085 296.875 88.0487 298.278C84.8052 295.526 80.0312 295.385 76.6225 298.277C72.7704 296.878 68.1042 298.401 65.6914 302.314C61.7838 302.372 57.658 305.471 56.624 310.241C52.418 311.609 49.7941 316.271 49.878 320.659C46.5558 323.406 45.2787 328.447 46.5725 332.639H46.0004C44.3282 332.639 42.9724 334.003 42.9724 335.685V349.902C42.9724 361.817 50.5666 371.979 61.1401 375.751V380.366C61.14 385.405 65.215 389.505 70.2238 389.505H94.4474C99.4562 389.505 103.531 385.405 103.531 380.366V375.751C114.105 371.979 121.699 361.817 121.699 349.902V335.686C121.699 334.003 120.343 332.639 118.671 332.639ZM54.2357 324.876C55.5228 324.294 56.2225 322.879 55.9064 321.495C55.3447 319.035 57.0062 315.718 59.2516 315.792C60.9589 315.844 62.355 314.434 62.2977 312.717C62.1964 309.68 64.8172 307.812 66.5092 308.381C68.0843 308.911 69.7788 308.031 70.2702 306.445C71.0864 303.81 73.8554 303.055 75.378 304.315C76.741 305.442 78.7795 305.125 79.739 303.633C81.0402 301.61 83.6245 301.601 84.9323 303.634C85.891 305.123 87.928 305.443 89.2927 304.316C90.8219 303.052 93.5874 303.819 94.4015 306.445C94.895 308.037 96.5926 308.909 98.1624 308.382C99.8041 307.829 102.477 309.633 102.374 312.718C102.317 314.429 103.708 315.843 105.419 315.792C107.671 315.71 109.323 319.051 108.765 321.495C108.449 322.879 109.148 324.295 110.435 324.876C112.574 325.843 113.416 329.844 111.945 331.937C111.705 332.28 111.428 332.522 111.155 332.639H53.5156C51.28 331.68 51.5096 326.108 54.2357 324.876ZM97.4754 380.366C97.4754 382.046 96.1171 383.412 94.4474 383.412H70.2238C68.5541 383.412 67.1958 382.046 67.1958 380.366V377.149C68.1905 377.26 69.2003 377.32 70.2238 377.32H94.4474C95.4709 377.32 96.4807 377.261 97.4754 377.149V380.366V380.366ZM115.643 349.902C115.643 361.661 106.135 371.227 94.4476 371.227H70.2238C58.5365 371.227 49.0283 361.66 49.0283 349.902V338.732H115.643V349.902V349.902Z" fill="black"/>
<path d="M70.2238 359.041C65.215 359.041 61.14 354.941 61.14 349.902C61.14 348.22 59.7843 346.856 58.1119 346.856C56.4397 346.856 55.0839 348.22 55.0839 349.902C55.0839 358.301 61.8757 365.134 70.2236 365.134C71.896 365.134 73.2516 363.77 73.2516 362.088C73.2518 360.405 71.896 359.041 70.2238 359.041Z" fill="black"/>
<path d="M82.3362 326.548C84.0085 326.548 85.3642 325.184 85.3642 323.501C85.3642 321.819 84.0085 320.455 82.3362 320.455C80.6639 320.455 79.3082 321.819 79.3082 323.501C79.3082 325.184 80.6639 326.548 82.3362 326.548Z" fill="black"/>
<path d="M94.4479 320.453C96.1202 320.453 97.4759 319.089 97.4759 317.406C97.4759 315.724 96.1202 314.36 94.4479 314.36C92.7756 314.36 91.4199 315.724 91.4199 317.406C91.4199 319.089 92.7756 320.453 94.4479 320.453Z" fill="black"/>
<path d="M70.2244 320.453C71.8967 320.453 73.2524 319.089 73.2524 317.406C73.2524 315.724 71.8967 314.36 70.2244 314.36C68.552 314.36 67.1964 315.724 67.1964 317.406C67.1964 319.089 68.552 320.453 70.2244 320.453Z" fill="black"/>
</g>
<g clip-path="url(#clip7_26_212)">
<path d="M464.334 0.00134277H379.424C377.497 0.00134277 376.084 1.8261 376.551 3.70405L377.269 6.59513C378.728 12.4653 383.509 16.769 389.297 17.6936V29.8015H380.411C378.776 29.8015 377.449 31.1357 377.449 32.7814V44.7015C377.449 46.3473 378.776 47.6815 380.411 47.6815H389.297V74.1859L386.903 85.4282H383.373C381.737 85.4282 380.411 86.7625 380.411 88.4082C380.411 90.0539 381.737 91.3882 383.373 91.3882C384.573 91.3882 411.751 91.3882 412.993 91.3882C414.629 91.3882 415.955 90.0539 415.955 88.4082C415.955 86.7625 414.629 85.4282 412.993 85.4282H409.463L407.069 74.1859V47.6815H436.689V74.1859L434.294 85.4282H430.765C429.129 85.4282 427.803 86.7625 427.803 88.4082C427.803 90.0539 429.129 91.3882 430.765 91.3882C431.965 91.3882 459.142 91.3882 460.385 91.3882C462.02 91.3882 463.347 90.0539 463.347 88.4082C463.347 86.7625 462.02 85.4282 460.385 85.4282H456.855L454.461 74.1859V47.6815H463.347C464.983 47.6815 466.309 46.3473 466.309 44.7015V32.7814C466.309 31.1357 464.983 29.8015 463.347 29.8015H454.461V17.6936C460.249 16.769 465.03 12.4653 466.489 6.59513L467.208 3.70405C467.675 1.82271 466.257 0.00134277 464.334 0.00134277ZM389.297 41.7216H383.373V35.7616H389.297V41.7216ZM454.461 35.7614H460.385V41.7214H454.461V35.7614ZM392.961 85.4282L394.654 77.4815H401.713L403.405 85.4282H392.961ZM395.221 71.5215V17.8814H401.145V71.5215H395.221ZM436.689 41.7216H407.069V35.7616C409.976 35.7616 433.746 35.7616 436.689 35.7616V41.7216ZM407.069 29.8015V17.8814H412.993V29.8015H407.069ZM418.917 29.8015V17.8814H424.841V29.8015H418.917ZM436.689 29.8015H430.765V17.8814H436.689V29.8015ZM440.353 85.4282L442.046 77.4815H449.104L450.797 85.4282H440.353ZM442.613 71.5215V17.8814H448.537V71.5215H442.613ZM452.121 11.9214C449.233 11.9214 394.59 11.9214 391.637 11.9214C387.835 11.9214 384.501 9.50978 383.258 5.96147H460.5C459.257 9.50978 455.923 11.9214 452.121 11.9214Z" fill="black"/>
</g>
<g clip-path="url(#clip8_26_212)">
<path d="M403.151 339.03C404.787 339.03 406.113 337.695 406.113 336.05C406.113 334.404 404.787 333.069 403.151 333.069C401.515 333.069 400.189 334.404 400.189 336.05C400.189 337.695 401.515 339.03 403.151 339.03Z" fill="black"/>
<path d="M437.709 339.03C439.345 339.03 440.671 337.695 440.671 336.05C440.671 334.404 439.345 333.069 437.709 333.069C436.073 333.069 434.747 334.404 434.747 336.05C434.747 337.695 436.073 339.03 437.709 339.03Z" fill="black"/>
<path d="M419.936 327.109C421.572 327.109 422.898 325.775 422.898 324.129C422.898 322.483 421.572 321.148 419.936 321.148C418.3 321.148 416.974 322.483 416.974 324.129C416.974 325.775 418.3 327.109 419.936 327.109Z" fill="black"/>
<path d="M464.415 384.534C464.149 384.283 458.769 379.288 450.975 376.55C457.897 366.513 457.261 353.428 457.226 352.804C457.141 351.288 455.935 350.078 454.428 349.997C453.919 349.97 443.148 349.455 433.572 354.261C430.24 344.242 422.309 337.159 421.886 336.786C420.769 335.804 419.102 335.804 417.986 336.786C417.562 337.159 409.632 344.242 406.3 354.261C396.723 349.455 385.953 349.969 385.444 349.997C383.936 350.078 382.731 351.288 382.646 352.804C382.611 353.428 381.975 366.512 388.896 376.55C381.102 379.288 375.723 384.284 375.456 384.534C374.204 385.713 374.206 387.712 375.456 388.888C375.879 389.286 385.961 398.632 398.708 398.632C401.576 398.632 404.308 398.157 406.826 397.42C410.308 401.402 417.398 403.911 419.013 404.443C419.612 404.641 420.259 404.641 420.859 404.443C422.474 403.911 429.564 401.402 433.045 397.42C435.564 398.157 438.296 398.632 441.164 398.632C453.911 398.632 463.992 389.286 464.415 388.888C465.668 387.71 465.666 385.711 464.415 384.534ZM419.94 343.228C423.131 346.671 429.105 354.266 429.105 362.87C429.105 371.438 423.12 379.06 419.932 382.512C416.741 379.069 410.768 371.474 410.768 362.87C410.768 354.302 416.752 346.68 419.94 343.228ZM398.708 392.671C391.825 392.671 385.655 389.121 382.259 386.71C384.727 384.957 388.66 382.608 393.263 381.454C398.776 386.241 405.823 388.268 411.312 389.112C407.912 390.963 403.481 392.671 398.708 392.671ZM395.968 375.839C390.09 369.812 388.839 360.597 388.598 355.981C392.368 356.163 399.217 356.981 404.976 360.309C404.117 368.688 407.662 376.671 412.817 383.306C400.933 381.66 396.619 376.34 395.968 375.839ZM419.936 398.458C417.423 397.54 414.775 396.237 412.965 394.978C415.965 393.469 418.368 391.794 419.936 390.581C421.503 391.794 423.907 393.47 426.907 394.978C425.096 396.238 422.448 397.54 419.936 398.458ZM434.895 360.309C440.659 356.979 447.514 356.162 451.28 355.98C451.049 360.589 449.811 369.785 443.904 375.838C443.255 376.338 438.968 381.631 427.065 383.293C432.226 376.644 435.752 368.669 434.895 360.309ZM441.164 392.671C436.39 392.671 431.959 390.963 428.559 389.112C434.049 388.268 441.096 386.241 446.609 381.454C451.213 382.608 455.146 384.958 457.613 386.71C454.216 389.122 448.046 392.671 441.164 392.671Z" fill="black"/>
</g>
<g clip-path="url(#clip9_26_212)">
<path d="M87.4881 106.664C90.3826 102.243 90.5328 96.6549 87.6491 92.0663L71.4989 65.0864C71.4862 65.0652 71.4731 65.0441 71.4597 65.023C66.3438 56.947 54.7742 56.9539 49.6624 65.023C49.6491 65.0441 49.6361 65.0652 49.6233 65.0864L44.9324 72.923L40.2415 65.0864C40.2289 65.0652 40.2157 65.0441 40.2024 65.023C35.0864 56.947 23.517 56.9539 18.4053 65.023C18.3919 65.0441 18.3789 65.0652 18.3661 65.0864L2.21573 92.0663C-0.668545 96.6554 -0.517249 102.244 2.3765 106.664C1.02327 106.925 0 108.121 0 109.558C0 117.686 6.57277 124.299 14.6518 124.299H75.2128C83.2919 124.299 89.8646 117.686 89.8646 109.558C89.8648 108.121 88.8416 106.925 87.4881 106.664ZM7.18111 95.199C7.19393 95.1786 7.20656 95.1583 7.21885 95.1377L23.3657 68.1634C26.1814 63.7633 32.4279 63.7663 35.2416 68.1634L42.403 80.1272C42.4062 80.1325 42.4095 80.1377 42.4127 80.143L51.3886 95.1377C51.4009 95.1583 51.4136 95.1788 51.4264 95.199C52.8923 97.5174 53.0015 100.349 51.719 102.774C50.4286 105.212 48.1503 106.61 45.4686 106.61H41.0252V91.8691C41.0252 86.9921 37.0815 83.0244 32.2341 83.0244H26.3734C21.526 83.0244 17.5823 86.9921 17.5823 91.8691V106.61H13.1389C7.42771 106.61 4.0899 100.088 7.18111 95.199ZM35.1645 91.8687V106.61H23.443V91.8687C23.443 90.2431 24.7576 88.9204 26.3734 88.9204H32.2341C33.8499 88.9206 35.1645 90.2431 35.1645 91.8687ZM75.213 118.403H14.6518C10.8313 118.403 7.57216 115.938 6.36285 112.506C9.11988 112.506 78.5942 112.506 83.5018 112.506C82.2925 115.938 79.0337 118.403 75.213 118.403ZM56.3914 92.0661L55.247 90.1542C55.785 89.3981 56.6628 88.9204 57.6306 88.9204H63.4913C65.1071 88.9204 66.4217 90.2431 66.4217 91.8687V106.61H56.2654C56.4872 106.267 56.6973 105.913 56.8922 105.545C59.1742 101.231 58.9862 96.1949 56.3914 92.0661ZM76.7258 106.61H72.2826V91.8687C72.2826 86.9918 68.3389 83.024 63.4914 83.024H57.6307C55.5782 83.024 53.6593 83.7408 52.1397 84.963L48.3532 78.6375L54.6231 68.1631C57.4385 63.7631 63.6856 63.7657 66.4993 68.1633L82.6458 95.1373C82.6581 95.158 82.6707 95.1785 82.6835 95.1988C85.7744 100.087 82.4382 106.61 76.7258 106.61Z" fill="black"/>
</g>
<g clip-path="url(#clip10_26_212)">
<path d="M505.329 233.929C500.481 233.929 496.537 229.962 496.537 225.085C496.537 223.456 495.226 222.136 493.607 222.136C491.989 222.136 490.677 223.456 490.677 225.085C490.677 233.213 497.249 239.826 505.328 239.826C506.947 239.826 508.259 238.506 508.259 236.877C508.259 235.249 506.947 233.929 505.329 233.929Z" fill="black"/>
<path d="M565.89 192.654H531.702V186.758H565.89C567.508 186.758 568.82 185.438 568.82 183.81C568.82 182.181 567.508 180.861 565.89 180.861H531.198C529.988 177.43 526.731 174.965 522.911 174.965C520.661 174.965 518.607 175.821 517.05 177.224C515.494 175.821 513.439 174.965 511.189 174.965C508.94 174.965 506.885 175.821 505.329 177.224C503.772 175.821 501.718 174.965 499.468 174.965C495.648 174.965 492.391 177.43 491.181 180.861H481.886C480.267 180.861 478.955 182.181 478.955 183.81C478.955 185.438 480.267 186.758 481.886 186.758H490.677V192.654H481.886C480.267 192.654 478.955 193.974 478.955 195.602C478.955 197.231 480.267 198.551 481.886 198.551H490.677V209.607C490.677 209.856 490.692 210.102 490.718 210.344H481.886C480.267 210.344 478.955 211.664 478.955 213.292V225.085C478.955 236.616 486.305 246.45 496.537 250.101V254.567C496.537 259.444 500.481 263.412 505.329 263.412H528.772C533.619 263.412 537.563 259.444 537.563 254.567V250.101C547.796 246.45 555.145 236.616 555.145 225.085V213.292C555.145 211.664 553.833 210.344 552.215 210.344H531.66C531.687 210.101 531.702 209.856 531.702 209.606V198.551H565.89C567.508 198.551 568.82 197.231 568.82 195.602C568.82 193.974 567.508 192.654 565.89 192.654ZM519.98 183.81C519.98 182.184 521.295 180.861 522.911 180.861C524.527 180.861 525.841 182.184 525.841 183.81V209.606C525.841 210.013 525.513 210.344 525.109 210.344H520.713C520.309 210.344 519.98 210.013 519.98 209.606V183.81V183.81ZM508.259 183.81C508.259 182.184 509.574 180.861 511.189 180.861C512.805 180.861 514.12 182.184 514.12 183.81V209.606C514.12 210.013 513.791 210.344 513.387 210.344H508.991C508.587 210.344 508.259 210.013 508.259 209.606V183.81H508.259ZM496.537 183.81C496.537 182.184 497.852 180.861 499.468 180.861C501.084 180.861 502.398 182.184 502.398 183.81V209.606C502.398 210.013 502.07 210.344 501.666 210.344H497.27C496.866 210.344 496.538 210.013 496.538 209.606V183.81H496.537ZM531.702 254.567C531.702 256.193 530.387 257.515 528.772 257.515H505.329C503.713 257.515 502.398 256.193 502.398 254.567V251.619H505.329H528.772H531.702V254.567V254.567ZM549.284 216.24V225.085C549.284 236.464 540.082 245.722 528.772 245.722H505.329C494.018 245.722 484.816 236.464 484.816 225.085V216.24C485.406 216.24 548.612 216.24 549.284 216.24Z" fill="black"/>
</g>
<g clip-path="url(#clip11_26_212)">
<path d="M293.699 205.266L282.285 193.783L295.253 180.736C296.412 179.57 296.412 177.679 295.253 176.513C294.094 175.347 292.214 175.347 291.055 176.513L278.088 189.559L266.674 178.076C263.779 175.163 259.306 174.61 255.796 176.729L241.29 185.486C239.419 186.615 237.688 187.975 236.144 189.527L208.079 217.764C204.607 221.257 204.607 226.94 208.079 230.433L241.659 264.218C245.13 267.711 250.78 267.711 254.252 264.218L282.317 235.982C283.86 234.43 285.212 232.688 286.334 230.805L295.039 216.21C297.145 212.679 296.594 208.178 293.699 205.266ZM289.949 213.137L281.244 227.732C280.371 229.197 279.32 230.551 278.12 231.759L250.055 259.995C248.894 261.162 247.017 261.162 245.857 259.995L212.276 226.21C211.119 225.046 211.119 223.151 212.276 221.987L240.341 193.751C241.542 192.543 242.888 191.485 244.343 190.607L258.85 181.85C260.019 181.144 261.51 181.327 262.476 182.299L273.89 193.783L267.318 200.395L266.383 195.694C265.738 192.448 263.381 189.835 260.232 188.876C257.084 187.917 253.682 188.775 251.355 191.116L250.252 192.227L250.252 192.226C247.925 194.567 247.072 197.989 248.026 201.157C248.979 204.325 251.575 206.696 254.802 207.346L262.973 208.99L264.607 217.211C265.252 220.456 267.609 223.069 270.758 224.028C273.914 224.99 277.314 224.123 279.635 221.788L280.738 220.678C283.065 218.337 283.918 214.915 282.964 211.747C282.011 208.579 279.415 206.208 276.188 205.559L271.515 204.618L278.087 198.006L289.502 209.49C290.467 210.46 290.651 211.96 289.949 213.137ZM261.712 202.645L255.966 201.489C254.392 201.173 253.862 199.941 253.707 199.426C253.553 198.912 253.315 197.591 254.449 196.45C254.449 196.45 254.449 196.45 254.45 196.449L255.553 195.339C256.399 194.488 257.499 194.284 258.512 194.593C259.024 194.749 260.248 195.282 260.563 196.865L261.712 202.645ZM269.279 210.259L275.025 211.415C276.598 211.731 277.128 212.963 277.283 213.478C277.438 213.992 277.676 215.313 276.541 216.455L275.437 217.565C274.303 218.707 272.991 218.467 272.479 218.311C271.967 218.156 270.743 217.622 270.428 216.039L269.279 210.259Z" fill="black"/>
<path d="M267.594 229.679L242.408 204.34C241.25 203.174 239.37 203.174 238.211 204.34L220.671 221.987C219.512 223.153 219.512 225.044 220.671 226.21L245.857 251.549C247.016 252.715 248.895 252.715 250.054 251.549L267.594 233.902C268.753 232.736 268.753 230.845 267.594 229.679ZM247.955 245.214L226.968 224.098L240.31 210.675L261.297 231.791L247.955 245.214Z" fill="black"/>
</g>
<g clip-path="url(#clip12_26_212)">
<path d="M820.225 814.074H819.652C820.934 809.922 819.699 804.866 816.347 802.094C816.432 797.704 813.806 793.045 809.601 791.676C808.572 786.926 804.464 783.807 800.534 783.749C798.124 779.843 793.462 778.31 789.602 779.713C786.359 776.961 781.585 776.82 778.176 779.712C774.324 778.313 769.658 779.836 767.245 783.749C763.338 783.807 759.212 786.906 758.178 791.676C753.972 793.044 751.348 797.706 751.432 802.094C748.11 804.842 746.832 809.882 748.126 814.074H747.554C745.882 814.074 744.526 815.438 744.526 817.121V831.337C744.526 843.252 752.12 853.414 762.694 857.186V861.801C762.694 866.84 766.769 870.94 771.778 870.94H796.001C801.01 870.94 805.085 866.84 805.085 861.801V857.186C815.659 853.414 823.253 843.252 823.253 831.337V817.121C823.253 815.438 821.897 814.074 820.225 814.074ZM755.789 806.311C757.077 805.729 757.776 804.314 757.46 802.93C756.898 800.47 758.56 797.153 760.805 797.227C762.513 797.279 763.909 795.869 763.851 794.153C763.75 791.115 766.371 789.247 768.063 789.817C769.638 790.346 771.333 789.467 771.824 787.88C772.64 785.245 775.409 784.491 776.932 785.75C778.295 786.877 780.333 786.56 781.293 785.068C782.594 783.045 785.178 783.037 786.486 785.069C787.445 786.559 789.482 786.878 790.846 785.751C792.376 784.487 795.141 785.254 795.955 787.88C796.449 789.472 798.146 790.344 799.716 789.817C801.358 789.264 804.031 791.068 803.928 794.153C803.87 795.865 805.261 797.279 806.973 797.227C809.224 797.146 810.876 800.486 810.318 802.93C810.002 804.314 810.702 805.73 811.989 806.311C814.128 807.278 814.97 811.279 813.499 813.373C813.258 813.715 812.982 813.957 812.709 814.074H755.069C752.834 813.115 753.063 807.543 755.789 806.311ZM799.029 861.801C799.029 863.481 797.671 864.847 796.001 864.847H771.778C770.108 864.847 768.75 863.481 768.75 861.801V858.584C769.744 858.695 770.754 858.755 771.778 858.755H796.001C797.025 858.755 798.034 858.696 799.029 858.584V861.801V861.801ZM817.197 831.337C817.197 843.096 807.688 852.662 796.001 852.662H771.778C760.09 852.662 750.582 843.095 750.582 831.337V820.167H817.197V831.337V831.337Z" fill="black"/>
<path d="M771.778 840.476C766.769 840.476 762.694 836.376 762.694 831.337C762.694 829.655 761.338 828.291 759.666 828.291C757.993 828.291 756.638 829.655 756.638 831.337C756.638 839.736 763.429 846.569 771.777 846.569C773.45 846.569 774.805 845.205 774.805 843.523C774.806 841.84 773.45 840.476 771.778 840.476Z" fill="black"/>
<path d="M783.89 807.983C785.562 807.983 786.918 806.619 786.918 804.936C786.918 803.254 785.562 801.89 783.89 801.89C782.218 801.89 780.862 803.254 780.862 804.936C780.862 806.619 782.218 807.983 783.89 807.983Z" fill="black"/>
<path d="M796.002 801.888C797.674 801.888 799.03 800.524 799.03 798.841C799.03 797.159 797.674 795.795 796.002 795.795C794.329 795.795 792.974 797.159 792.974 798.841C792.974 800.524 794.329 801.888 796.002 801.888Z" fill="black"/>
<path d="M771.778 801.888C773.45 801.888 774.806 800.524 774.806 798.841C774.806 797.159 773.45 795.795 771.778 795.795C770.106 795.795 768.75 797.159 768.75 798.841C768.75 800.524 770.106 801.888 771.778 801.888Z" fill="black"/>
</g>
<g clip-path="url(#clip13_26_212)">
<path d="M1165.89 481.436H1080.98C1079.05 481.436 1077.64 483.261 1078.1 485.139L1078.82 488.03C1080.28 493.9 1085.06 498.204 1090.85 499.129V511.237H1081.97C1080.33 511.237 1079 512.571 1079 514.217V526.137C1079 527.782 1080.33 529.117 1081.97 529.117H1090.85V555.621L1088.46 566.863H1084.93C1083.29 566.863 1081.97 568.198 1081.97 569.843C1081.97 571.489 1083.29 572.823 1084.93 572.823C1086.13 572.823 1113.3 572.823 1114.55 572.823C1116.18 572.823 1117.51 571.489 1117.51 569.843C1117.51 568.198 1116.18 566.863 1114.55 566.863H1111.02L1108.62 555.621V529.117H1138.24V555.621L1135.85 566.863H1132.32C1130.68 566.863 1129.36 568.198 1129.36 569.843C1129.36 571.489 1130.68 572.823 1132.32 572.823C1133.52 572.823 1160.7 572.823 1161.94 572.823C1163.57 572.823 1164.9 571.489 1164.9 569.843C1164.9 568.198 1163.57 566.863 1161.94 566.863H1158.41L1156.01 555.621V529.117H1164.9C1166.54 529.117 1167.86 527.782 1167.86 526.137V514.217C1167.86 512.571 1166.54 511.237 1164.9 511.237H1156.01V499.129C1161.8 498.204 1166.58 493.9 1168.04 488.03L1168.76 485.139C1169.23 483.258 1167.81 481.436 1165.89 481.436ZM1090.85 523.157H1084.93V517.197H1090.85V523.157ZM1156.01 517.197H1161.94V523.156H1156.01V517.197ZM1094.52 566.863L1096.21 558.917H1103.27L1104.96 566.863H1094.52ZM1096.77 552.957V499.316H1102.7V552.957H1096.77ZM1138.24 523.157H1108.62V517.197C1111.53 517.197 1135.3 517.197 1138.24 517.197V523.157ZM1108.62 511.237V499.316H1114.55V511.237H1108.62ZM1120.47 511.237V499.316H1126.39V511.237H1120.47ZM1138.24 511.237H1132.32V499.316H1138.24V511.237ZM1141.91 566.863L1143.6 558.917H1150.66L1152.35 566.863H1141.91ZM1144.17 552.957V499.316H1150.09V552.957H1144.17ZM1153.68 493.357C1150.79 493.357 1096.14 493.357 1093.19 493.357C1089.39 493.357 1086.05 490.945 1084.81 487.397H1162.05C1160.81 490.945 1157.48 493.357 1153.68 493.357Z" fill="black"/>
</g>
<g clip-path="url(#clip14_26_212)">
<path d="M1104.71 820.465C1106.34 820.465 1107.67 819.131 1107.67 817.485C1107.67 815.839 1106.34 814.505 1104.71 814.505C1103.07 814.505 1101.74 815.839 1101.74 817.485C1101.74 819.131 1103.07 820.465 1104.71 820.465Z" fill="black"/>
<path d="M1139.26 820.465C1140.9 820.465 1142.22 819.131 1142.22 817.485C1142.22 815.839 1140.9 814.505 1139.26 814.505C1137.63 814.505 1136.3 815.839 1136.3 817.485C1136.3 819.131 1137.63 820.465 1139.26 820.465Z" fill="black"/>
<path d="M1121.49 808.544C1123.13 808.544 1124.45 807.21 1124.45 805.564C1124.45 803.918 1123.13 802.584 1121.49 802.584C1119.85 802.584 1118.53 803.918 1118.53 805.564C1118.53 807.21 1119.85 808.544 1121.49 808.544Z" fill="black"/>
<path d="M1165.97 865.969C1165.7 865.719 1160.32 860.723 1152.53 857.985C1159.45 847.948 1158.81 834.863 1158.78 834.24C1158.69 832.723 1157.49 831.513 1155.98 831.432C1155.47 831.405 1144.7 830.89 1135.13 835.696C1131.79 825.677 1123.86 818.594 1123.44 818.221C1122.32 817.239 1120.66 817.239 1119.54 818.221C1119.12 818.594 1111.19 825.677 1107.85 835.696C1098.28 830.89 1087.51 831.404 1087 831.432C1085.49 831.513 1084.28 832.723 1084.2 834.24C1084.16 834.863 1083.53 847.947 1090.45 857.985C1082.66 860.723 1077.28 865.719 1077.01 865.969C1075.76 867.148 1075.76 869.147 1077.01 870.323C1077.43 870.721 1087.51 880.067 1100.26 880.067C1103.13 880.067 1105.86 879.593 1108.38 878.855C1111.86 882.837 1118.95 885.346 1120.57 885.878C1121.17 886.076 1121.81 886.076 1122.41 885.878C1124.03 885.346 1131.12 882.838 1134.6 878.855C1137.12 879.593 1139.85 880.067 1142.72 880.067C1155.46 880.067 1165.55 870.721 1165.97 870.323C1167.22 869.145 1167.22 867.146 1165.97 865.969ZM1121.49 824.664C1124.68 828.106 1130.66 835.701 1130.66 844.305C1130.66 852.873 1124.67 860.495 1121.49 863.947C1118.3 860.504 1112.32 852.909 1112.32 844.305C1112.32 835.737 1118.31 828.115 1121.49 824.664ZM1100.26 874.106C1093.38 874.106 1087.21 870.556 1083.81 868.145C1086.28 866.392 1090.21 864.043 1094.82 862.889C1100.33 867.676 1107.38 869.703 1112.87 870.547C1109.47 872.398 1105.04 874.106 1100.26 874.106ZM1097.52 857.274C1091.64 851.247 1090.39 842.032 1090.15 837.416C1093.92 837.599 1100.77 838.416 1106.53 841.744C1105.67 850.123 1109.22 858.106 1114.37 864.741C1102.49 863.095 1098.17 857.775 1097.52 857.274ZM1121.49 879.893C1118.98 878.975 1116.33 877.672 1114.52 876.413C1117.52 874.905 1119.92 873.229 1121.49 872.016C1123.06 873.229 1125.46 874.905 1128.46 876.413C1126.65 877.673 1124 878.975 1121.49 879.893ZM1136.45 841.744C1142.21 838.414 1149.07 837.597 1152.83 837.416C1152.6 842.024 1151.36 851.22 1145.46 857.274C1144.81 857.773 1140.52 863.066 1128.62 864.728C1133.78 858.079 1137.31 850.104 1136.45 841.744ZM1142.72 874.106C1137.94 874.106 1133.51 872.398 1130.11 870.547C1135.6 869.703 1142.65 867.676 1148.16 862.889C1152.77 864.043 1156.7 866.393 1159.17 868.145C1155.77 870.557 1149.6 874.106 1142.72 874.106Z" fill="black"/>
</g>
<g clip-path="url(#clip15_26_212)">
<path d="M789.042 588.099C791.936 583.678 792.087 578.09 789.203 573.501L773.053 546.522C773.04 546.5 773.027 546.479 773.014 546.458C767.898 538.382 756.328 538.389 751.216 546.458C751.203 546.479 751.19 546.5 751.177 546.522L746.486 554.358L741.795 546.522C741.783 546.5 741.77 546.479 741.756 546.458C736.64 538.382 725.071 538.389 719.959 546.458C719.946 546.479 719.933 546.5 719.92 546.522L703.77 573.501C700.885 578.091 701.037 583.679 703.93 588.099C702.577 588.36 701.554 589.556 701.554 590.993C701.554 599.121 708.127 605.734 716.206 605.734H776.767C784.846 605.734 791.418 599.121 791.418 590.993C791.419 589.556 790.395 588.36 789.042 588.099ZM708.735 576.634C708.748 576.614 708.76 576.593 708.773 576.573L724.92 549.599C727.735 545.198 733.982 545.201 736.795 549.599L743.957 561.562C743.96 561.568 743.963 561.573 743.966 561.578L752.942 576.573C752.955 576.593 752.967 576.614 752.98 576.634C754.446 578.952 754.555 581.785 753.273 584.209C751.982 586.647 749.704 588.045 747.022 588.045H742.579V573.304C742.579 568.427 738.635 564.46 733.788 564.46H727.927C723.08 564.46 719.136 568.427 719.136 573.304V588.045H714.693C708.981 588.045 705.644 581.523 708.735 576.634ZM736.718 573.304V588.045H724.997V573.304C724.997 571.678 726.311 570.356 727.927 570.356H733.788C735.404 570.356 736.718 571.678 736.718 573.304ZM776.767 599.838H716.206C712.385 599.838 709.126 597.373 707.917 593.941C710.674 593.941 780.148 593.941 785.056 593.941C783.846 597.373 780.587 599.838 776.767 599.838ZM757.945 573.501L756.801 571.589C757.339 570.833 758.217 570.356 759.184 570.356H765.045C766.661 570.356 767.975 571.678 767.975 573.304V588.045H757.819C758.041 587.702 758.251 587.348 758.446 586.98C760.728 582.666 760.54 577.63 757.945 573.501ZM778.28 588.045H773.836V573.304C773.836 568.427 769.893 564.459 765.045 564.459H759.185C757.132 564.459 755.213 565.176 753.693 566.398L749.907 560.073L756.177 549.598C758.992 545.198 765.239 545.201 768.053 549.598L784.2 576.572C784.212 576.593 784.225 576.614 784.237 576.634C787.328 581.522 783.992 588.045 778.28 588.045Z" fill="black"/>
</g>
<g clip-path="url(#clip16_26_212)">
<path d="M1206.88 715.364C1202.03 715.364 1198.09 711.397 1198.09 706.52C1198.09 704.892 1196.78 703.571 1195.16 703.571C1193.54 703.571 1192.23 704.891 1192.23 706.52C1192.23 714.648 1198.8 721.261 1206.88 721.261C1208.5 721.261 1209.81 719.941 1209.81 718.313C1209.81 716.684 1208.5 715.364 1206.88 715.364Z" fill="black"/>
<path d="M1267.44 674.089H1233.26V668.193H1267.44C1269.06 668.193 1270.37 666.873 1270.37 665.245C1270.37 663.617 1269.06 662.296 1267.44 662.296H1232.75C1231.54 658.865 1228.28 656.4 1224.46 656.4C1222.21 656.4 1220.16 657.256 1218.6 658.659C1217.05 657.256 1214.99 656.4 1212.74 656.4C1210.49 656.4 1208.44 657.256 1206.88 658.659C1205.33 657.256 1203.27 656.4 1201.02 656.4C1197.2 656.4 1193.94 658.865 1192.73 662.296H1183.44C1181.82 662.297 1180.51 663.617 1180.51 665.245C1180.51 666.873 1181.82 668.193 1183.44 668.193H1192.23V674.089H1183.44C1181.82 674.089 1180.51 675.409 1180.51 677.038C1180.51 678.666 1181.82 679.986 1183.44 679.986H1192.23V691.042C1192.23 691.291 1192.25 691.537 1192.27 691.779H1183.44C1181.82 691.779 1180.51 693.099 1180.51 694.727V706.52C1180.51 718.051 1187.86 727.885 1198.09 731.536V736.002C1198.09 740.879 1202.03 744.847 1206.88 744.847H1230.33C1235.17 744.847 1239.12 740.879 1239.12 736.002V731.536C1249.35 727.885 1256.7 718.051 1256.7 706.52V694.727C1256.7 693.099 1255.39 691.779 1253.77 691.779H1233.21C1233.24 691.537 1233.26 691.291 1233.26 691.042V679.986H1267.44C1269.06 679.986 1270.37 678.666 1270.37 677.037C1270.37 675.409 1269.06 674.089 1267.44 674.089ZM1221.53 665.245C1221.53 663.619 1222.85 662.296 1224.46 662.296C1226.08 662.296 1227.4 663.619 1227.4 665.245V691.042C1227.4 691.448 1227.07 691.779 1226.66 691.779H1222.27C1221.86 691.779 1221.53 691.448 1221.53 691.042V665.245V665.245ZM1209.81 665.245C1209.81 663.619 1211.13 662.296 1212.74 662.296C1214.36 662.296 1215.67 663.619 1215.67 665.245V691.042C1215.67 691.448 1215.35 691.779 1214.94 691.779H1210.55C1210.14 691.779 1209.81 691.448 1209.81 691.042V665.245H1209.81ZM1198.09 665.245C1198.09 663.619 1199.41 662.296 1201.02 662.296C1202.64 662.296 1203.95 663.619 1203.95 665.245V691.042C1203.95 691.448 1203.62 691.779 1203.22 691.779H1198.82C1198.42 691.779 1198.09 691.448 1198.09 691.042V665.245H1198.09ZM1233.26 736.002C1233.26 737.628 1231.94 738.95 1230.33 738.95H1206.88C1205.27 738.95 1203.95 737.628 1203.95 736.002V733.054H1206.88H1230.33H1233.26V736.002V736.002ZM1250.84 697.675V706.52C1250.84 717.899 1241.64 727.157 1230.33 727.157H1206.88C1195.57 727.157 1186.37 717.899 1186.37 706.52V697.675C1186.96 697.675 1250.17 697.675 1250.84 697.675Z" fill="black"/>
</g>
<g clip-path="url(#clip17_26_212)">
<path d="M995.253 686.701L983.839 675.218L996.807 662.171C997.966 661.005 997.966 659.114 996.807 657.948C995.647 656.782 993.768 656.782 992.609 657.948L979.642 670.995L968.228 659.511C965.333 656.599 960.86 656.045 957.35 658.164L942.843 666.921C940.973 668.05 939.242 669.41 937.698 670.962L909.632 699.199C906.161 702.692 906.161 708.375 909.632 711.868L943.213 745.653C946.684 749.146 952.334 749.147 955.806 745.653L983.871 717.417C985.414 715.865 986.766 714.123 987.888 712.241L996.592 697.645C998.699 694.114 998.148 689.613 995.253 686.701ZM991.502 694.572L982.798 709.168C981.925 710.632 980.874 711.987 979.674 713.194L951.608 741.43C950.448 742.597 948.571 742.597 947.411 741.43L913.83 707.645C912.673 706.481 912.673 704.586 913.83 703.422L941.895 675.186C943.096 673.978 944.442 672.92 945.897 672.042L960.404 663.285C961.573 662.579 963.064 662.763 964.03 663.734L975.444 675.218L968.872 681.83L967.937 677.129C967.292 673.883 964.935 671.271 961.786 670.311C958.637 669.352 955.236 670.21 952.909 672.551L951.805 673.662L951.806 673.661C949.479 676.002 948.626 679.424 949.58 682.592C950.533 685.76 953.129 688.132 956.356 688.781L964.527 690.425L966.161 698.646C966.806 701.892 969.163 704.504 972.312 705.463C975.468 706.425 978.868 705.558 981.188 703.223L982.292 702.113C984.619 699.772 985.472 696.35 984.518 693.182C983.565 690.014 980.968 687.643 977.742 686.994L973.069 686.053L979.641 679.441L991.056 690.925C992.021 691.895 992.204 693.395 991.502 694.572ZM963.266 684.08L957.52 682.924C955.946 682.608 955.416 681.376 955.261 680.861C955.106 680.347 954.868 679.026 956.003 677.885C956.003 677.885 956.003 677.885 956.003 677.884L957.107 676.774C957.953 675.923 959.053 675.719 960.066 676.028C960.578 676.184 961.802 676.717 962.116 678.3L963.266 684.08ZM970.833 691.694L976.578 692.85C978.152 693.167 978.682 694.398 978.837 694.913C978.992 695.427 979.23 696.748 978.095 697.89L976.991 699C975.857 700.142 974.544 699.903 974.032 699.747C973.521 699.591 972.297 699.057 971.982 697.474L970.833 691.694Z" fill="black"/>
<path d="M969.148 711.114L943.962 685.775C942.803 684.609 940.924 684.609 939.765 685.775L922.225 703.422C921.066 704.588 921.066 706.479 922.225 707.645L947.41 732.984C948.57 734.15 950.449 734.15 951.608 732.984L969.148 715.337C970.307 714.171 970.307 712.28 969.148 711.114ZM949.509 726.649L928.521 705.533L941.863 692.11L962.851 713.226L949.509 726.649Z" fill="black"/>
</g>
<g clip-path="url(#clip18_26_212)">
<path d="M820.225 332.639H819.652C820.934 328.487 819.699 323.431 816.347 320.659C816.432 316.269 813.806 311.61 809.601 310.241C808.572 305.491 804.464 302.372 800.534 302.314C798.124 298.408 793.462 296.875 789.602 298.278C786.359 295.526 781.585 295.385 778.176 298.277C774.324 296.878 769.658 298.401 767.245 302.314C763.338 302.372 759.212 305.471 758.178 310.241C753.972 311.609 751.348 316.271 751.432 320.659C748.11 323.406 746.832 328.447 748.126 332.639H747.554C745.882 332.639 744.526 334.003 744.526 335.685V349.902C744.526 361.817 752.12 371.979 762.694 375.751V380.366C762.694 385.405 766.769 389.505 771.778 389.505H796.001C801.01 389.505 805.085 385.405 805.085 380.366V375.751C815.659 371.979 823.253 361.817 823.253 349.902V335.686C823.253 334.003 821.897 332.639 820.225 332.639ZM755.789 324.876C757.077 324.294 757.776 322.879 757.46 321.495C756.898 319.035 758.56 315.718 760.805 315.792C762.513 315.844 763.909 314.434 763.851 312.717C763.75 309.68 766.371 307.812 768.063 308.381C769.638 308.911 771.333 308.031 771.824 306.445C772.64 303.81 775.409 303.055 776.932 304.315C778.295 305.442 780.333 305.125 781.293 303.633C782.594 301.61 785.178 301.601 786.486 303.634C787.445 305.123 789.482 305.443 790.846 304.316C792.376 303.052 795.141 303.819 795.955 306.445C796.449 308.037 798.146 308.909 799.716 308.382C801.358 307.829 804.031 309.633 803.928 312.718C803.87 314.429 805.261 315.843 806.973 315.792C809.224 315.71 810.876 319.051 810.318 321.495C810.002 322.879 810.702 324.295 811.989 324.876C814.128 325.843 814.97 329.844 813.499 331.937C813.258 332.28 812.982 332.522 812.709 332.639H755.069C752.834 331.68 753.063 326.108 755.789 324.876ZM799.029 380.366C799.029 382.046 797.671 383.412 796.001 383.412H771.778C770.108 383.412 768.75 382.046 768.75 380.366V377.149C769.744 377.26 770.754 377.32 771.778 377.32H796.001C797.025 377.32 798.034 377.261 799.029 377.149V380.366V380.366ZM817.197 349.902C817.197 361.661 807.688 371.227 796.001 371.227H771.778C760.09 371.227 750.582 361.66 750.582 349.902V338.732H817.197V349.902V349.902Z" fill="black"/>
<path d="M771.778 359.041C766.769 359.041 762.694 354.941 762.694 349.902C762.694 348.22 761.338 346.856 759.666 346.856C757.993 346.856 756.638 348.22 756.638 349.902C756.638 358.301 763.429 365.134 771.777 365.134C773.45 365.134 774.805 363.77 774.805 362.088C774.806 360.405 773.45 359.041 771.778 359.041Z" fill="black"/>
<path d="M783.89 326.548C785.562 326.548 786.918 325.184 786.918 323.501C786.918 321.819 785.562 320.455 783.89 320.455C782.218 320.455 780.862 321.819 780.862 323.501C780.862 325.184 782.218 326.548 783.89 326.548Z" fill="black"/>
<path d="M796.002 320.453C797.674 320.453 799.03 319.089 799.03 317.406C799.03 315.724 797.674 314.36 796.002 314.36C794.329 314.36 792.974 315.724 792.974 317.406C792.974 319.089 794.329 320.453 796.002 320.453Z" fill="black"/>
<path d="M771.778 320.453C773.45 320.453 774.806 319.089 774.806 317.406C774.806 315.724 773.45 314.36 771.778 314.36C770.106 314.36 768.75 315.724 768.75 317.406C768.75 319.089 770.106 320.453 771.778 320.453Z" fill="black"/>
</g>
<g clip-path="url(#clip19_26_212)">
<path d="M1165.89 0.00134277H1080.98C1079.05 0.00134277 1077.64 1.8261 1078.1 3.70405L1078.82 6.59513C1080.28 12.4653 1085.06 16.769 1090.85 17.6936V29.8015H1081.97C1080.33 29.8015 1079 31.1357 1079 32.7814V44.7015C1079 46.3473 1080.33 47.6815 1081.97 47.6815H1090.85V74.1859L1088.46 85.4282H1084.93C1083.29 85.4282 1081.97 86.7625 1081.97 88.4082C1081.97 90.0539 1083.29 91.3882 1084.93 91.3882C1086.13 91.3882 1113.3 91.3882 1114.55 91.3882C1116.18 91.3882 1117.51 90.0539 1117.51 88.4082C1117.51 86.7625 1116.18 85.4282 1114.55 85.4282H1111.02L1108.62 74.1859V47.6815H1138.24V74.1859L1135.85 85.4282H1132.32C1130.68 85.4282 1129.36 86.7625 1129.36 88.4082C1129.36 90.0539 1130.68 91.3882 1132.32 91.3882C1133.52 91.3882 1160.7 91.3882 1161.94 91.3882C1163.57 91.3882 1164.9 90.0539 1164.9 88.4082C1164.9 86.7625 1163.57 85.4282 1161.94 85.4282H1158.41L1156.01 74.1859V47.6815H1164.9C1166.54 47.6815 1167.86 46.3473 1167.86 44.7015V32.7814C1167.86 31.1357 1166.54 29.8015 1164.9 29.8015H1156.01V17.6936C1161.8 16.769 1166.58 12.4653 1168.04 6.59513L1168.76 3.70405C1169.23 1.82271 1167.81 0.00134277 1165.89 0.00134277ZM1090.85 41.7216H1084.93V35.7616H1090.85V41.7216ZM1156.01 35.7614H1161.94V41.7214H1156.01V35.7614ZM1094.52 85.4282L1096.21 77.4815H1103.27L1104.96 85.4282H1094.52ZM1096.77 71.5215V17.8814H1102.7V71.5215H1096.77ZM1138.24 41.7216H1108.62V35.7616C1111.53 35.7616 1135.3 35.7616 1138.24 35.7616V41.7216ZM1108.62 29.8015V17.8814H1114.55V29.8015H1108.62ZM1120.47 29.8015V17.8814H1126.39V29.8015H1120.47ZM1138.24 29.8015H1132.32V17.8814H1138.24V29.8015ZM1141.91 85.4282L1143.6 77.4815H1150.66L1152.35 85.4282H1141.91ZM1144.17 71.5215V17.8814H1150.09V71.5215H1144.17ZM1153.68 11.9214C1150.79 11.9214 1096.14 11.9214 1093.19 11.9214C1089.39 11.9214 1086.05 9.50978 1084.81 5.96147H1162.05C1160.81 9.50978 1157.48 11.9214 1153.68 11.9214Z" fill="black"/>
</g>
<g clip-path="url(#clip20_26_212)">
<path d="M1104.71 339.03C1106.34 339.03 1107.67 337.695 1107.67 336.05C1107.67 334.404 1106.34 333.069 1104.71 333.069C1103.07 333.069 1101.74 334.404 1101.74 336.05C1101.74 337.695 1103.07 339.03 1104.71 339.03Z" fill="black"/>
<path d="M1139.26 339.03C1140.9 339.03 1142.22 337.695 1142.22 336.05C1142.22 334.404 1140.9 333.069 1139.26 333.069C1137.63 333.069 1136.3 334.404 1136.3 336.05C1136.3 337.695 1137.63 339.03 1139.26 339.03Z" fill="black"/>
<path d="M1121.49 327.109C1123.13 327.109 1124.45 325.775 1124.45 324.129C1124.45 322.483 1123.13 321.148 1121.49 321.148C1119.85 321.148 1118.53 322.483 1118.53 324.129C1118.53 325.775 1119.85 327.109 1121.49 327.109Z" fill="black"/>
<path d="M1165.97 384.534C1165.7 384.283 1160.32 379.288 1152.53 376.55C1159.45 366.513 1158.81 353.428 1158.78 352.804C1158.69 351.288 1157.49 350.078 1155.98 349.997C1155.47 349.97 1144.7 349.455 1135.13 354.261C1131.79 344.242 1123.86 337.159 1123.44 336.786C1122.32 335.804 1120.66 335.804 1119.54 336.786C1119.12 337.159 1111.19 344.242 1107.85 354.261C1098.28 349.455 1087.51 349.969 1087 349.997C1085.49 350.078 1084.28 351.288 1084.2 352.804C1084.16 353.428 1083.53 366.512 1090.45 376.55C1082.66 379.288 1077.28 384.284 1077.01 384.534C1075.76 385.713 1075.76 387.712 1077.01 388.888C1077.43 389.286 1087.51 398.632 1100.26 398.632C1103.13 398.632 1105.86 398.157 1108.38 397.42C1111.86 401.402 1118.95 403.911 1120.57 404.443C1121.17 404.641 1121.81 404.641 1122.41 404.443C1124.03 403.911 1131.12 401.402 1134.6 397.42C1137.12 398.157 1139.85 398.632 1142.72 398.632C1155.46 398.632 1165.55 389.286 1165.97 388.888C1167.22 387.71 1167.22 385.711 1165.97 384.534ZM1121.49 343.228C1124.68 346.671 1130.66 354.266 1130.66 362.87C1130.66 371.438 1124.67 379.06 1121.49 382.512C1118.3 379.069 1112.32 371.474 1112.32 362.87C1112.32 354.302 1118.31 346.68 1121.49 343.228ZM1100.26 392.671C1093.38 392.671 1087.21 389.121 1083.81 386.71C1086.28 384.957 1090.21 382.608 1094.82 381.454C1100.33 386.241 1107.38 388.268 1112.87 389.112C1109.47 390.963 1105.04 392.671 1100.26 392.671ZM1097.52 375.839C1091.64 369.812 1090.39 360.597 1090.15 355.981C1093.92 356.163 1100.77 356.981 1106.53 360.309C1105.67 368.688 1109.22 376.671 1114.37 383.306C1102.49 381.66 1098.17 376.34 1097.52 375.839ZM1121.49 398.458C1118.98 397.54 1116.33 396.237 1114.52 394.978C1117.52 393.469 1119.92 391.794 1121.49 390.581C1123.06 391.794 1125.46 393.47 1128.46 394.978C1126.65 396.238 1124 397.54 1121.49 398.458ZM1136.45 360.309C1142.21 356.979 1149.07 356.162 1152.83 355.98C1152.6 360.589 1151.36 369.785 1145.46 375.838C1144.81 376.338 1140.52 381.631 1128.62 383.293C1133.78 376.644 1137.31 368.669 1136.45 360.309ZM1142.72 392.671C1137.94 392.671 1133.51 390.963 1130.11 389.112C1135.6 388.268 1142.65 386.241 1148.16 381.454C1152.77 382.608 1156.7 384.958 1159.17 386.71C1155.77 389.122 1149.6 392.671 1142.72 392.671Z" fill="black"/>
</g>
<g clip-path="url(#clip21_26_212)">
<path d="M789.042 106.664C791.936 102.243 792.087 96.6549 789.203 92.0663L773.053 65.0864C773.04 65.0652 773.027 65.0441 773.014 65.023C767.898 56.947 756.328 56.9539 751.216 65.023C751.203 65.0441 751.19 65.0652 751.177 65.0864L746.486 72.923L741.795 65.0864C741.783 65.0652 741.77 65.0441 741.756 65.023C736.64 56.947 725.071 56.9539 719.959 65.023C719.946 65.0441 719.933 65.0652 719.92 65.0864L703.77 92.0663C700.885 96.6554 701.037 102.244 703.93 106.664C702.577 106.925 701.554 108.121 701.554 109.558C701.554 117.686 708.127 124.299 716.206 124.299H776.767C784.846 124.299 791.418 117.686 791.418 109.558C791.419 108.121 790.395 106.925 789.042 106.664ZM708.735 95.199C708.748 95.1786 708.76 95.1583 708.773 95.1377L724.92 68.1634C727.735 63.7633 733.982 63.7663 736.795 68.1634L743.957 80.1272C743.96 80.1325 743.963 80.1377 743.966 80.143L752.942 95.1377C752.955 95.1583 752.967 95.1788 752.98 95.199C754.446 97.5174 754.555 100.349 753.273 102.774C751.982 105.212 749.704 106.61 747.022 106.61H742.579V91.8691C742.579 86.9921 738.635 83.0244 733.788 83.0244H727.927C723.08 83.0244 719.136 86.9921 719.136 91.8691V106.61H714.693C708.981 106.61 705.644 100.088 708.735 95.199ZM736.718 91.8687V106.61H724.997V91.8687C724.997 90.2431 726.311 88.9204 727.927 88.9204H733.788C735.404 88.9206 736.718 90.2431 736.718 91.8687ZM776.767 118.403H716.206C712.385 118.403 709.126 115.938 707.917 112.506C710.674 112.506 780.148 112.506 785.056 112.506C783.846 115.938 780.587 118.403 776.767 118.403ZM757.945 92.0661L756.801 90.1542C757.339 89.3981 758.217 88.9204 759.184 88.9204H765.045C766.661 88.9204 767.975 90.2431 767.975 91.8687V106.61H757.819C758.041 106.267 758.251 105.913 758.446 105.545C760.728 101.231 760.54 96.1949 757.945 92.0661ZM778.28 106.61H773.836V91.8687C773.836 86.9918 769.893 83.024 765.045 83.024H759.185C757.132 83.024 755.213 83.7408 753.693 84.963L749.907 78.6375L756.177 68.1631C758.992 63.7631 765.239 63.7657 768.053 68.1633L784.2 95.1373C784.212 95.158 784.225 95.1785 784.237 95.1988C787.328 100.087 783.992 106.61 778.28 106.61Z" fill="black"/>
</g>
<g clip-path="url(#clip22_26_212)">
<path d="M1206.88 233.929C1202.03 233.929 1198.09 229.962 1198.09 225.085C1198.09 223.456 1196.78 222.136 1195.16 222.136C1193.54 222.136 1192.23 223.456 1192.23 225.085C1192.23 233.213 1198.8 239.826 1206.88 239.826C1208.5 239.826 1209.81 238.506 1209.81 236.877C1209.81 235.249 1208.5 233.929 1206.88 233.929Z" fill="black"/>
<path d="M1267.44 192.654H1233.26V186.758H1267.44C1269.06 186.758 1270.37 185.438 1270.37 183.81C1270.37 182.181 1269.06 180.861 1267.44 180.861H1232.75C1231.54 177.43 1228.28 174.965 1224.46 174.965C1222.21 174.965 1220.16 175.821 1218.6 177.224C1217.05 175.821 1214.99 174.965 1212.74 174.965C1210.49 174.965 1208.44 175.821 1206.88 177.224C1205.33 175.821 1203.27 174.965 1201.02 174.965C1197.2 174.965 1193.94 177.43 1192.73 180.861H1183.44C1181.82 180.861 1180.51 182.181 1180.51 183.81C1180.51 185.438 1181.82 186.758 1183.44 186.758H1192.23V192.654H1183.44C1181.82 192.654 1180.51 193.974 1180.51 195.602C1180.51 197.231 1181.82 198.551 1183.44 198.551H1192.23V209.607C1192.23 209.856 1192.25 210.102 1192.27 210.344H1183.44C1181.82 210.344 1180.51 211.664 1180.51 213.292V225.085C1180.51 236.616 1187.86 246.45 1198.09 250.101V254.567C1198.09 259.444 1202.03 263.412 1206.88 263.412H1230.33C1235.17 263.412 1239.12 259.444 1239.12 254.567V250.101C1249.35 246.45 1256.7 236.616 1256.7 225.085V213.292C1256.7 211.664 1255.39 210.344 1253.77 210.344H1233.21C1233.24 210.101 1233.26 209.856 1233.26 209.606V198.551H1267.44C1269.06 198.551 1270.37 197.231 1270.37 195.602C1270.37 193.974 1269.06 192.654 1267.44 192.654ZM1221.53 183.81C1221.53 182.184 1222.85 180.861 1224.46 180.861C1226.08 180.861 1227.4 182.184 1227.4 183.81V209.606C1227.4 210.013 1227.07 210.344 1226.66 210.344H1222.27C1221.86 210.344 1221.53 210.013 1221.53 209.606V183.81V183.81ZM1209.81 183.81C1209.81 182.184 1211.13 180.861 1212.74 180.861C1214.36 180.861 1215.67 182.184 1215.67 183.81V209.606C1215.67 210.013 1215.35 210.344 1214.94 210.344H1210.55C1210.14 210.344 1209.81 210.013 1209.81 209.606V183.81H1209.81ZM1198.09 183.81C1198.09 182.184 1199.41 180.861 1201.02 180.861C1202.64 180.861 1203.95 182.184 1203.95 183.81V209.606C1203.95 210.013 1203.62 210.344 1203.22 210.344H1198.82C1198.42 210.344 1198.09 210.013 1198.09 209.606V183.81H1198.09ZM1233.26 254.567C1233.26 256.193 1231.94 257.515 1230.33 257.515H1206.88C1205.27 257.515 1203.95 256.193 1203.95 254.567V251.619H1206.88H1230.33H1233.26V254.567V254.567ZM1250.84 216.24V225.085C1250.84 236.464 1241.64 245.722 1230.33 245.722H1206.88C1195.57 245.722 1186.37 236.464 1186.37 225.085V216.24C1186.96 216.24 1250.17 216.24 1250.84 216.24Z" fill="black"/>
</g>
<g clip-path="url(#clip23_26_212)">
<path d="M995.253 205.266L983.839 193.783L996.807 180.736C997.966 179.57 997.966 177.679 996.807 176.513C995.647 175.347 993.768 175.347 992.609 176.513L979.642 189.559L968.228 178.076C965.333 175.163 960.86 174.61 957.35 176.729L942.843 185.486C940.973 186.615 939.242 187.975 937.698 189.527L909.632 217.764C906.161 221.257 906.161 226.94 909.632 230.433L943.213 264.218C946.684 267.711 952.334 267.711 955.806 264.218L983.871 235.982C985.414 234.43 986.766 232.688 987.888 230.805L996.592 216.21C998.699 212.679 998.148 208.178 995.253 205.266ZM991.502 213.137L982.798 227.732C981.925 229.197 980.874 230.551 979.674 231.759L951.608 259.995C950.448 261.162 948.571 261.162 947.411 259.995L913.83 226.21C912.673 225.046 912.673 223.151 913.83 221.987L941.895 193.751C943.096 192.543 944.442 191.485 945.897 190.607L960.404 181.85C961.573 181.144 963.064 181.327 964.03 182.299L975.444 193.783L968.872 200.395L967.937 195.694C967.292 192.448 964.935 189.835 961.786 188.876C958.637 187.917 955.236 188.775 952.909 191.116L951.805 192.227L951.806 192.226C949.479 194.567 948.626 197.989 949.58 201.157C950.533 204.325 953.129 206.696 956.356 207.346L964.527 208.99L966.161 217.211C966.806 220.456 969.163 223.069 972.312 224.028C975.468 224.99 978.868 224.123 981.188 221.788L982.292 220.678C984.619 218.337 985.472 214.915 984.518 211.747C983.565 208.579 980.968 206.208 977.742 205.559L973.069 204.618L979.641 198.006L991.056 209.49C992.021 210.46 992.204 211.96 991.502 213.137ZM963.266 202.645L957.52 201.489C955.946 201.173 955.416 199.941 955.261 199.426C955.106 198.912 954.868 197.591 956.003 196.45C956.003 196.45 956.003 196.45 956.003 196.449L957.107 195.339C957.953 194.488 959.053 194.284 960.066 194.593C960.578 194.749 961.802 195.282 962.116 196.865L963.266 202.645ZM970.833 210.259L976.578 211.415C978.152 211.731 978.682 212.963 978.837 213.478C978.992 213.992 979.23 215.313 978.095 216.455L976.991 217.565C975.857 218.707 974.544 218.467 974.032 218.311C973.521 218.156 972.297 217.622 971.982 216.039L970.833 210.259Z" fill="black"/>
<path d="M969.148 229.679L943.962 204.34C942.803 203.174 940.924 203.174 939.765 204.34L922.225 221.987C921.066 223.153 921.066 225.044 922.225 226.21L947.41 251.549C948.57 252.715 950.449 252.715 951.608 251.549L969.148 233.902C970.307 232.736 970.307 230.845 969.148 229.679ZM949.509 245.214L928.521 224.098L941.863 210.675L962.851 231.791L949.509 245.214Z" fill="black"/>
</g>
<defs>
<clipPath id="clip0_26_212">
<rect width="92.7794" height="93.3444" fill="white" transform="translate(35.946 777.596)"/>
</clipPath>
<clipPath id="clip1_26_212">
<rect width="90.8363" height="91.3895" fill="white" transform="translate(376.461 481.435)"/>
</clipPath>
<clipPath id="clip2_26_212">
<rect width="90.8363" height="91.3895" fill="white" transform="translate(374.518 798.611)"/>
</clipPath>
<clipPath id="clip3_26_212">
<rect width="89.8648" height="90.4121" fill="white" transform="translate(0 527.863)"/>
</clipPath>
<clipPath id="clip4_26_212">
<rect width="89.8648" height="90.4121" fill="white" transform="translate(478.955 655.417)"/>
</clipPath>
<clipPath id="clip5_26_212">
<rect width="90.8363" height="91.3895" fill="white" transform="translate(205.475 656.883)"/>
</clipPath>
<clipPath id="clip6_26_212">
<rect width="92.7794" height="93.3444" fill="white" transform="translate(35.946 296.161)"/>
</clipPath>
<clipPath id="clip7_26_212">
<rect width="90.8363" height="91.3895" fill="white" transform="translate(376.461)"/>
</clipPath>
<clipPath id="clip8_26_212">
<rect width="90.8363" height="91.3895" fill="white" transform="translate(374.518 317.175)"/>
</clipPath>
<clipPath id="clip9_26_212">
<rect width="89.8648" height="90.4121" fill="white" transform="translate(0 46.4278)"/>
</clipPath>
<clipPath id="clip10_26_212">
<rect width="89.8648" height="90.4121" fill="white" transform="translate(478.955 173.982)"/>
</clipPath>
<clipPath id="clip11_26_212">
<rect width="90.8363" height="91.3895" fill="white" transform="translate(205.475 175.448)"/>
</clipPath>
<clipPath id="clip12_26_212">
<rect width="92.7794" height="93.3444" fill="white" transform="translate(737.5 777.596)"/>
</clipPath>
<clipPath id="clip13_26_212">
<rect width="90.8363" height="91.3895" fill="white" transform="translate(1078.01 481.435)"/>
</clipPath>
<clipPath id="clip14_26_212">
<rect width="90.8363" height="91.3895" fill="white" transform="translate(1076.07 798.611)"/>
</clipPath>
<clipPath id="clip15_26_212">
<rect width="89.8648" height="90.4121" fill="white" transform="translate(701.554 527.863)"/>
</clipPath>
<clipPath id="clip16_26_212">
<rect width="89.8648" height="90.4121" fill="white" transform="translate(1180.51 655.417)"/>
</clipPath>
<clipPath id="clip17_26_212">
<rect width="90.8363" height="91.3895" fill="white" transform="translate(907.029 656.883)"/>
</clipPath>
<clipPath id="clip18_26_212">
<rect width="92.7794" height="93.3444" fill="white" transform="translate(737.5 296.161)"/>
</clipPath>
<clipPath id="clip19_26_212">
<rect width="90.8363" height="91.3895" fill="white" transform="translate(1078.01)"/>
</clipPath>
<clipPath id="clip20_26_212">
<rect width="90.8363" height="91.3895" fill="white" transform="translate(1076.07 317.175)"/>
</clipPath>
<clipPath id="clip21_26_212">
<rect width="89.8648" height="90.4121" fill="white" transform="translate(701.554 46.4278)"/>
</clipPath>
<clipPath id="clip22_26_212">
<rect width="89.8648" height="90.4121" fill="white" transform="translate(1180.51 173.982)"/>
</clipPath>
<clipPath id="clip23_26_212">
<rect width="90.8363" height="91.3895" fill="white" transform="translate(907.029 175.448)"/>
</clipPath>
</defs>
</svg>
