<?xml version="1.0" encoding="iso-8859-1"?>
<!-- Generator: Adobe Illustrator 19.0.0, SVG Export Plug-In . SVG Version: 6.00 Build 0)  -->
<svg version="1.1" id="Layer_1" xmlns="http://www.w3.org/2000/svg" xmlns:xlink="http://www.w3.org/1999/xlink" x="0px" y="0px"
	 viewBox="0 0 512 512" style="enable-background:new 0 0 512 512;" xml:space="preserve">
<g>
	<g>
		<path d="M497.279,167.052l-64.335-64.337l73.091-73.091c6.534-6.532,6.534-17.126,0-23.659c-6.534-6.534-17.126-6.534-23.659,0
			l-73.091,73.091l-64.335-64.335c-16.316-16.317-41.528-19.42-61.312-7.549l-81.768,49.06
			c-10.544,6.326-20.301,13.945-29.001,22.644L14.676,237.067c-19.567,19.57-19.567,51.41,0,70.979l189.278,189.277
			c19.565,19.567,51.41,19.571,70.979,0l158.19-158.189c8.696-8.696,16.315-18.454,22.643-29.002l49.061-81.768
			C516.699,208.579,513.595,183.366,497.279,167.052z M476.137,211.148l-49.061,81.768c-4.923,8.204-10.848,15.793-17.612,22.557
			l-158.19,158.19c-6.54,6.539-17.12,6.539-23.661,0L38.336,284.387c-6.524-6.524-6.524-17.137,0-23.661l158.19-158.189
			c6.767-6.767,14.356-12.692,22.557-17.613l81.769-49.06c6.587-3.954,14.993-2.927,20.437,2.516l64.335,64.335L348.58,139.76
			l-5.268-26.338c-3.637-18.185-16.922-32.82-34.671-38.193c-17.748-5.375-36.921-0.567-50.035,12.547l-6.221,6.222l0.001-0.001
			c-13.113,13.113-17.921,32.283-12.547,50.033c5.374,17.748,20.008,31.034,38.193,34.671l46.056,9.212l9.21,46.055
			c3.637,18.185,16.922,32.82,34.671,38.193c17.792,5.388,36.954,0.532,50.034-12.546l6.221-6.222
			c13.113-13.113,17.921-32.284,12.547-50.034c-5.374-17.748-20.009-31.033-38.193-34.67l-26.34-5.269l37.044-37.044l64.337,64.337
			C479.059,196.15,480.094,204.554,476.137,211.148z M316.98,152.368l-32.385-6.478c-8.87-1.773-11.858-8.673-12.731-11.556
			c-0.873-2.884-2.214-10.282,4.182-16.677c0,0,0,0,0.001-0.001l6.22-6.221c4.768-4.768,10.967-5.909,16.679-4.181
			c2.883,0.873,9.783,3.861,11.557,12.73L316.98,152.368z M359.632,195.021l32.386,6.478c8.869,1.773,11.857,8.672,12.73,11.556
			c0.873,2.883,2.214,10.282-4.182,16.679l-6.221,6.222c-6.395,6.393-13.792,5.054-16.677,4.18
			c-2.883-0.873-9.783-3.861-11.557-12.73L359.632,195.021z"/>
	</g>
</g>
<g>
	<g>
		<path d="M350.135,303.822L208.177,161.864c-6.532-6.532-17.126-6.532-23.659,0l-98.863,98.863c-6.534,6.532-6.534,17.126,0,23.659
			l141.958,141.958c6.534,6.534,17.126,6.534,23.659,0l98.863-98.863C356.669,320.949,356.669,310.355,350.135,303.822z
			 M239.443,390.855L121.145,272.556l75.202-75.203l118.298,118.298L239.443,390.855z"/>
	</g>
</g>
<g>
</g>
<g>
</g>
<g>
</g>
<g>
</g>
<g>
</g>
<g>
</g>
<g>
</g>
<g>
</g>
<g>
</g>
<g>
</g>
<g>
</g>
<g>
</g>
<g>
</g>
<g>
</g>
<g>
</g>
</svg>
