<?xml version="1.0" encoding="iso-8859-1"?>
<!-- Generator: Adobe Illustrator 19.0.0, SVG Export Plug-In . SVG Version: 6.00 Build 0)  -->
<svg version="1.1" id="Layer_1" xmlns="http://www.w3.org/2000/svg" xmlns:xlink="http://www.w3.org/1999/xlink" x="0px" y="0px"
	 viewBox="0 0 512 512" style="enable-background:new 0 0 512 512;" xml:space="preserve">
<g>
	<g>
		<path d="M498.459,341.116c16.491-25.035,17.347-56.682,0.917-82.667l-92.015-152.786c-0.072-0.12-0.147-0.24-0.223-0.359
			c-29.148-45.734-95.065-45.695-124.189,0c-0.076,0.119-0.15,0.239-0.223,0.359L256,150.041l-26.726-44.378
			c-0.072-0.12-0.147-0.24-0.223-0.359c-29.148-45.734-95.064-45.695-124.188,0c-0.076,0.119-0.15,0.239-0.223,0.359L12.624,258.449
			c-16.433,25.988-15.571,57.637,0.916,82.668C5.83,342.593,0,349.364,0,357.504c0,46.03,37.448,83.478,83.478,83.478h345.043
			c46.03,0,83.478-37.448,83.478-83.478C512,349.364,506.17,342.592,498.459,341.116z M40.914,276.189
			c0.073-0.115,0.145-0.23,0.215-0.347l91.996-152.754c16.042-24.918,51.631-24.901,67.662,0l40.802,67.75
			c0.018,0.03,0.037,0.06,0.055,0.09l51.14,84.914c0.07,0.117,0.142,0.233,0.215,0.347c8.352,13.129,8.974,29.167,1.667,42.898
			c-7.352,13.805-20.332,21.723-35.611,21.723h-25.316v-83.478c0-27.618-22.469-50.087-50.087-50.087h-33.391
			c-27.618,0-50.087,22.469-50.087,50.087v83.478H74.858C42.319,340.809,23.302,303.877,40.914,276.189z M200.348,257.33v83.478
			h-66.783V257.33c0-9.206,7.49-16.696,16.696-16.696h33.391C192.858,240.635,200.348,248.124,200.348,257.33z M428.522,407.591
			H83.478c-21.767,0-40.336-13.956-47.226-33.391c15.708,0,411.534,0,439.495,0C468.857,393.635,450.29,407.591,428.522,407.591z
			 M321.287,258.448l-6.52-10.827c3.065-4.282,8.066-6.987,13.58-6.987h33.391c9.206,0,16.696,7.49,16.696,16.696v83.478h-57.865
			c1.264-1.94,2.461-3.947,3.571-6.032C337.142,310.347,336.071,281.829,321.287,258.448z M437.141,340.809h-25.315V257.33
			c0-27.618-22.469-50.087-50.087-50.087h-33.391c-11.694,0-22.627,4.059-31.285,10.98l-21.573-35.821l35.722-59.316
			c16.041-24.917,51.633-24.902,67.664,0.001L470.87,275.84c0.07,0.117,0.142,0.233,0.215,0.348
			C488.695,303.87,469.687,340.809,437.141,340.809z"/>
	</g>
</g>
<g>
</g>
<g>
</g>
<g>
</g>
<g>
</g>
<g>
</g>
<g>
</g>
<g>
</g>
<g>
</g>
<g>
</g>
<g>
</g>
<g>
</g>
<g>
</g>
<g>
</g>
<g>
</g>
<g>
</g>
</svg>
