<svg width="1299" height="1011" viewBox="0 0 1299 1011" fill="none" xmlns="http://www.w3.org/2000/svg">
<g clip-path="url(#clip0_2_804)">
<path d="M139.582 389.171H138.913C140.412 384.313 138.967 378.398 135.046 375.155C135.145 370.018 132.073 364.568 127.154 362.966C125.949 357.409 121.143 353.76 116.545 353.691C113.726 349.122 108.272 347.329 103.756 348.97C99.9611 345.75 94.3758 345.586 90.3878 348.969C85.8809 347.332 80.4218 349.114 77.5989 353.692C73.0272 353.76 68.2003 357.386 66.9906 362.966C62.0697 364.566 58.9998 370.02 59.098 375.154C55.2113 378.369 53.7171 384.266 55.2308 389.171H54.5615C52.6051 389.171 51.0189 390.766 51.0189 392.735V409.367C51.0189 423.307 59.9036 435.196 72.2742 439.61V445.009C72.274 450.904 77.0415 455.701 82.9016 455.701H111.242C117.102 455.701 121.87 450.904 121.87 445.009V439.61C134.24 435.196 143.125 423.307 143.125 409.367V392.735C143.125 390.767 141.539 389.171 139.582 389.171ZM64.1963 380.088C65.7022 379.408 66.5207 377.752 66.151 376.133C65.4938 373.255 67.4377 369.374 70.0646 369.46C72.0622 369.521 73.6955 367.871 73.6285 365.863C73.51 362.31 76.5762 360.124 78.5557 360.791C80.3985 361.41 82.3809 360.381 82.9559 358.524C83.9108 355.443 87.1504 354.559 88.9317 356.033C90.5264 357.351 92.9113 356.98 94.0338 355.235C95.5563 352.868 98.5797 352.858 100.11 355.236C101.231 356.979 103.615 357.353 105.211 356.034C107 354.555 110.236 355.453 111.188 358.525C111.766 360.387 113.752 361.408 115.588 360.791C117.509 360.144 120.636 362.255 120.516 365.864C120.449 367.866 122.076 369.521 124.078 369.46C126.712 369.365 128.645 373.274 127.992 376.133C127.623 377.752 128.441 379.408 129.947 380.088C132.45 381.22 133.435 385.9 131.714 388.35C131.432 388.75 131.109 389.034 130.789 389.171H63.3538C60.7383 388.048 61.0069 381.53 64.1963 380.088ZM114.785 445.009C114.785 446.974 113.195 448.573 111.242 448.573H82.9016C80.9482 448.573 79.359 446.974 79.359 445.009V441.245C80.5227 441.375 81.7042 441.445 82.9016 441.445H111.242C112.439 441.445 113.621 441.375 114.785 441.245V445.009ZM136.04 409.367C136.04 423.124 124.915 434.316 111.242 434.316H82.9016C69.2281 434.316 58.1039 423.124 58.1039 409.367V396.299H136.04V409.367Z" fill="black"/>
<path d="M82.9016 420.06C77.0416 420.06 72.274 415.263 72.274 409.367C72.274 407.399 70.6879 405.803 68.7313 405.803C66.7749 405.803 65.1887 407.399 65.1887 409.367C65.1887 419.194 73.1347 427.188 82.9014 427.188C84.858 427.188 86.444 425.592 86.444 423.624C86.4442 421.656 84.858 420.06 82.9016 420.06Z" fill="black"/>
<path d="M97.0725 382.044C99.0291 382.044 100.615 380.448 100.615 378.48C100.615 376.511 99.0291 374.916 97.0725 374.916C95.116 374.916 93.5299 376.511 93.5299 378.48C93.5299 380.448 95.116 382.044 97.0725 382.044Z" fill="black"/>
<path d="M111.243 374.913C113.199 374.913 114.785 373.317 114.785 371.349C114.785 369.381 113.199 367.785 111.243 367.785C109.286 367.785 107.7 369.381 107.7 371.349C107.7 373.317 109.286 374.913 111.243 374.913Z" fill="black"/>
<path d="M82.9022 374.913C84.8588 374.913 86.4449 373.317 86.4449 371.349C86.4449 369.381 84.8588 367.785 82.9022 367.785C80.9457 367.785 79.3596 369.381 79.3596 371.349C79.3596 373.317 80.9457 374.913 82.9022 374.913Z" fill="black"/>
</g>
<g clip-path="url(#clip1_2_804)">
<path d="M543.99 0.00149536H444.65C442.395 0.00149536 440.742 2.13637 441.288 4.33347L442.129 7.71589C443.835 14.5837 449.429 19.6188 456.201 20.7005V34.8661H445.805C443.891 34.8661 442.34 36.4271 442.34 38.3525V52.2984C442.34 54.2238 443.891 55.7848 445.805 55.7848H456.201V86.7936L453.4 99.9466H449.27C447.357 99.9466 445.805 101.508 445.805 103.433C445.805 105.358 447.357 106.919 449.27 106.919C450.675 106.919 482.47 106.919 483.924 106.919C485.838 106.919 487.389 105.358 487.389 103.433C487.389 101.508 485.838 99.9466 483.924 99.9466H479.795L476.993 86.7936V55.7848H511.647V86.7936L508.846 99.9466H504.716C502.803 99.9466 501.251 101.508 501.251 103.433C501.251 105.358 502.803 106.919 504.716 106.919C506.12 106.919 537.916 106.919 539.37 106.919C541.284 106.919 542.835 105.358 542.835 103.433C542.835 101.508 541.284 99.9466 539.37 99.9466H535.241L532.439 86.7936V55.7848H542.835C544.749 55.7848 546.301 54.2238 546.301 52.2984V38.3525C546.301 36.4271 544.749 34.8661 542.835 34.8661H532.439V20.7005C539.211 19.6188 544.805 14.5837 546.512 7.71589L547.352 4.33347C547.899 2.1324 546.24 0.00149536 543.99 0.00149536ZM456.201 48.812H449.271V41.8392H456.201V48.812ZM532.439 41.839H539.37V48.8118H532.439V41.839ZM460.488 99.9466L462.468 90.6493H470.727L472.707 99.9466H460.488ZM463.132 83.6764V20.9202H470.062V83.6764H463.132ZM511.647 48.812H476.993V41.8392C480.394 41.8392 508.204 41.8392 511.647 41.8392V48.812ZM476.993 34.8661V20.9202H483.924V34.8661H476.993ZM490.855 34.8661V20.9202H497.785V34.8661H490.855ZM511.647 34.8661H504.716V20.9202H511.647V34.8661ZM515.934 99.9466L517.914 90.6493H526.172L528.153 99.9466H515.934ZM518.578 83.6764V20.9202H525.508V83.6764H518.578ZM529.702 13.9474C526.323 13.9474 462.394 13.9474 458.938 13.9474C454.49 13.9474 450.59 11.1259 449.136 6.97454H539.504C538.051 11.1259 534.15 13.9474 529.702 13.9474Z" fill="black"/>
</g>
<g clip-path="url(#clip2_2_804)">
<path d="M472.41 396.647C474.324 396.647 475.875 395.086 475.875 393.161C475.875 391.235 474.324 389.674 472.41 389.674C470.496 389.674 468.944 391.235 468.944 393.161C468.944 395.086 470.496 396.647 472.41 396.647Z" fill="black"/>
<path d="M512.84 396.647C514.754 396.647 516.306 395.086 516.306 393.161C516.306 391.235 514.754 389.674 512.84 389.674C510.926 389.674 509.375 391.235 509.375 393.161C509.375 395.086 510.926 396.647 512.84 396.647Z" fill="black"/>
<path d="M492.047 382.701C493.961 382.701 495.513 381.14 495.513 379.214C495.513 377.288 493.961 375.727 492.047 375.727C490.133 375.727 488.582 377.288 488.582 379.214C488.582 381.14 490.133 382.701 492.047 382.701Z" fill="black"/>
<path d="M544.086 449.885C543.774 449.592 537.48 443.748 528.361 440.545C536.459 428.801 535.715 413.493 535.674 412.763C535.575 410.989 534.164 409.574 532.401 409.478C531.805 409.447 519.204 408.844 508.001 414.468C504.102 402.745 494.824 394.458 494.328 394.022C493.022 392.873 491.072 392.873 489.765 394.022C489.27 394.458 479.992 402.745 476.093 414.468C464.889 408.844 452.288 409.445 451.693 409.478C449.929 409.574 448.519 410.989 448.419 412.763C448.378 413.493 447.635 428.801 455.732 440.545C446.614 443.748 440.32 449.592 440.008 449.885C438.543 451.264 438.545 453.603 440.008 454.979C440.503 455.444 452.298 466.378 467.211 466.378C470.566 466.378 473.763 465.824 476.71 464.961C480.782 469.62 489.078 472.555 490.967 473.178C491.668 473.41 492.425 473.41 493.127 473.178C495.016 472.555 503.311 469.62 507.384 464.961C510.331 465.824 513.527 466.378 516.883 466.378C531.796 466.378 543.591 455.444 544.086 454.979C545.551 453.6 545.549 451.262 544.086 449.885ZM492.052 401.56C495.785 405.587 502.774 414.473 502.774 424.539C502.774 434.564 495.772 443.48 492.042 447.519C488.31 443.492 481.321 434.605 481.321 424.539C481.32 414.515 488.322 405.598 492.052 401.56ZM467.211 459.405C459.158 459.405 451.94 455.252 447.967 452.431C450.854 450.38 455.456 447.632 460.841 446.282C467.291 451.882 475.536 454.254 481.958 455.241C477.979 457.407 472.796 459.405 467.211 459.405ZM464.006 439.712C457.129 432.661 455.665 421.88 455.383 416.48C459.794 416.693 467.807 417.65 474.545 421.543C473.54 431.346 477.687 440.685 483.718 448.449C469.814 446.522 464.767 440.298 464.006 439.712ZM492.047 466.175C489.107 465.101 486.009 463.577 483.892 462.104C487.401 460.339 490.213 458.379 492.047 456.96C493.881 458.379 496.693 460.339 500.202 462.104C498.084 463.578 494.986 465.101 492.047 466.175ZM509.549 421.543C516.292 417.647 524.312 416.691 528.718 416.479C528.447 421.87 526.999 432.629 520.088 439.712C519.329 440.296 514.314 446.489 500.388 448.433C506.426 440.654 510.551 431.324 509.549 421.543ZM516.883 459.405C511.297 459.405 506.114 457.407 502.136 455.241C508.558 454.254 516.803 451.882 523.253 446.282C528.639 447.632 533.241 450.381 536.127 452.431C532.153 455.252 524.935 459.405 516.883 459.405Z" fill="black"/>
</g>
<g clip-path="url(#clip3_2_804)">
<path d="M103.1 124.792C106.486 119.619 106.662 113.081 103.288 107.713L84.3934 76.1478C84.3786 76.123 84.3633 76.0982 84.3476 76.0736C78.3622 66.6252 64.8264 66.6332 58.8459 76.0736C58.8303 76.0982 58.8151 76.123 58.8001 76.1478L53.312 85.3162L47.8239 76.1478C47.8092 76.123 47.7938 76.0982 47.7782 76.0736C41.7927 66.6252 28.2571 66.6332 22.2766 76.0736C22.261 76.0982 22.2458 76.123 22.2308 76.1478L3.3357 107.713C-0.0387556 113.082 0.138253 119.621 3.5238 124.792C1.94058 125.097 0.743408 126.496 0.743408 128.177C0.743408 137.687 8.43321 145.424 17.8853 145.424H88.7386C98.1906 145.424 105.88 137.687 105.88 128.177C105.881 126.496 104.683 125.097 103.1 124.792ZM9.14494 111.378C9.15993 111.354 9.17472 111.33 9.18909 111.306L28.0801 79.7478C31.3743 74.5998 38.6823 74.6033 41.9743 79.7478L50.3528 93.7447C50.3565 93.7509 50.3604 93.7571 50.3641 93.7633L60.8655 111.306C60.8799 111.33 60.8946 111.354 60.9096 111.378C62.6247 114.09 62.7524 117.404 61.2519 120.241C59.7422 123.093 57.0768 124.728 53.9394 124.728H48.7408V107.482C48.7408 101.776 44.1269 97.1343 38.4556 97.1343H31.5989C25.9277 97.1343 21.3138 101.776 21.3138 107.482V124.728H16.1152C9.43345 124.728 5.52839 117.098 9.14494 111.378ZM41.8841 107.482V124.728H28.1705V107.482C28.1705 105.58 29.7085 104.032 31.5989 104.032H38.4556C40.3461 104.033 41.8841 105.58 41.8841 107.482ZM88.7388 138.525H17.8853C13.4155 138.525 9.60245 135.642 8.18762 131.627C11.4132 131.627 92.6946 131.627 98.4362 131.627C97.0214 135.642 93.2087 138.525 88.7388 138.525ZM66.7185 107.713L65.3796 105.476C66.009 104.591 67.0359 104.032 68.1682 104.032H75.0249C76.9153 104.032 78.4534 105.58 78.4534 107.482V124.728H66.571C66.8306 124.327 67.0764 123.913 67.3043 123.482C69.9742 118.435 69.7543 112.543 66.7185 107.713ZM90.5086 124.728H85.3103V107.482C85.3103 101.776 80.6964 97.1339 75.0251 97.1339H68.1684C65.7671 97.1339 63.522 97.9725 61.7442 99.4023L57.3142 92.0018L64.6496 79.7473C67.9436 74.5996 75.2522 74.6027 78.5442 79.7476L97.4348 111.306C97.4491 111.33 97.4639 111.354 97.4789 111.378C101.095 117.097 97.1918 124.728 90.5086 124.728Z" fill="black"/>
</g>
<g clip-path="url(#clip4_2_804)">
<path d="M591.952 273.685C586.281 273.685 581.667 269.043 581.667 263.337C581.667 261.433 580.132 259.888 578.238 259.888C576.345 259.888 574.81 261.432 574.81 263.337C574.81 272.847 582.5 280.584 591.952 280.584C593.845 280.584 595.38 279.039 595.38 277.134C595.38 275.23 593.845 273.685 591.952 273.685Z" fill="black"/>
<path d="M662.805 225.396H622.808V218.497H662.805C664.699 218.497 666.234 216.953 666.234 215.048C666.234 213.143 664.699 211.598 662.805 211.598H622.218C620.803 207.584 616.992 204.7 612.522 204.7C609.89 204.7 607.487 205.701 605.666 207.343C603.844 205.701 601.441 204.7 598.809 204.7C596.177 204.7 593.773 205.701 591.952 207.343C590.131 205.701 587.728 204.7 585.096 204.7C580.626 204.7 576.815 207.584 575.4 211.598H564.525C562.631 211.599 561.096 213.143 561.096 215.048C561.096 216.953 562.631 218.497 564.525 218.497H574.81V225.396H564.525C562.631 225.396 561.096 226.94 561.096 228.845C561.096 230.75 562.631 232.294 564.525 232.294H574.81V245.229C574.81 245.521 574.828 245.808 574.859 246.091H564.525C562.631 246.091 561.096 247.635 561.096 249.541V263.338C561.096 276.828 569.695 288.334 581.667 292.605V297.83C581.667 303.536 586.281 308.178 591.952 308.178H619.379C625.05 308.178 629.664 303.536 629.664 297.83V292.605C641.636 288.334 650.235 276.828 650.235 263.338V249.541C650.235 247.636 648.7 246.091 646.806 246.091H622.759C622.79 245.808 622.808 245.52 622.808 245.229V232.294H662.805C664.699 232.294 666.234 230.75 666.234 228.845C666.234 226.94 664.699 225.396 662.805 225.396ZM609.094 215.048C609.094 213.146 610.632 211.598 612.522 211.598C614.413 211.598 615.951 213.146 615.951 215.048V245.229C615.951 245.704 615.566 246.091 615.094 246.091H609.951C609.478 246.091 609.094 245.704 609.094 245.229V215.048ZM595.38 215.048C595.38 213.146 596.919 211.598 598.809 211.598C600.699 211.598 602.237 213.146 602.237 215.048V245.229C602.237 245.704 601.853 246.091 601.38 246.091H596.237C595.765 246.091 595.38 245.704 595.38 245.229V215.048H595.38ZM581.667 215.048C581.667 213.146 583.205 211.598 585.095 211.598C586.986 211.598 588.524 213.146 588.524 215.048V245.229C588.524 245.704 588.139 246.091 587.667 246.091H582.524C582.051 246.091 581.667 245.704 581.667 245.229V215.048H581.667ZM622.808 297.83C622.808 299.732 621.269 301.28 619.379 301.28H591.952C590.062 301.28 588.524 299.732 588.524 297.83V294.381H591.952H619.379H622.808V297.83ZM643.378 252.99V263.337C643.378 276.651 632.612 287.482 619.379 287.482H591.952C578.719 287.482 567.953 276.651 567.953 263.337V252.99C568.643 252.99 642.592 252.99 643.378 252.99Z" fill="black"/>
</g>
<g clip-path="url(#clip5_2_804)">
<path d="M344.357 240.151L331.003 226.716L346.174 211.452C347.53 210.088 347.53 207.876 346.174 206.511C344.818 205.147 342.619 205.147 341.263 206.511L326.092 221.775L312.738 208.34C309.352 204.932 304.118 204.284 300.012 206.763L283.04 217.009C280.851 218.33 278.826 219.921 277.02 221.737L244.185 254.772C240.123 258.859 240.123 265.508 244.185 269.595L283.472 309.122C287.533 313.208 294.143 313.209 298.205 309.122L331.04 276.087C332.845 274.271 334.426 272.233 335.74 270.03L345.923 252.955C348.388 248.823 347.743 243.558 344.357 240.151ZM339.968 249.36L329.785 266.435C328.763 268.149 327.533 269.733 326.129 271.146L293.294 304.181C291.937 305.546 289.741 305.546 288.383 304.181L249.096 264.654C247.741 263.292 247.741 261.075 249.096 259.713L281.931 226.678C283.335 225.265 284.91 224.028 286.613 223L303.585 212.755C304.952 211.929 306.697 212.144 307.827 213.28L321.181 226.716L313.492 234.452L312.398 228.952C311.643 225.154 308.886 222.098 305.202 220.976C301.518 219.853 297.538 220.857 294.816 223.596L293.525 224.895L293.525 224.895C290.803 227.633 289.805 231.637 290.921 235.343C292.036 239.05 295.074 241.824 298.848 242.584L308.408 244.507L310.32 254.125C311.075 257.923 313.832 260.979 317.516 262.101C321.209 263.226 325.187 262.212 327.902 259.481L329.193 258.182C331.915 255.443 332.913 251.44 331.797 247.733C330.682 244.027 327.644 241.252 323.87 240.493L318.402 239.393L326.091 231.657L339.446 245.092C340.575 246.228 340.79 247.983 339.968 249.36ZM306.933 237.085L300.211 235.732C298.37 235.362 297.749 233.921 297.568 233.319C297.387 232.716 297.109 231.171 298.436 229.836C298.436 229.836 298.436 229.836 298.436 229.836L299.727 228.537C300.717 227.541 302.004 227.303 303.189 227.663C303.788 227.846 305.22 228.47 305.588 230.322L306.933 237.085ZM315.786 245.992L322.508 247.345C324.349 247.715 324.969 249.156 325.15 249.758C325.332 250.36 325.61 251.905 324.282 253.241L322.991 254.54C321.664 255.875 320.128 255.596 319.529 255.413C318.931 255.231 317.499 254.607 317.131 252.755L315.786 245.992Z" fill="black"/>
<path d="M313.814 268.713L284.349 239.068C282.993 237.704 280.794 237.704 279.438 239.068L258.917 259.713C257.561 261.077 257.561 263.29 258.917 264.654L288.383 294.299C289.739 295.664 291.938 295.664 293.294 294.299L313.814 273.653C315.171 272.289 315.171 270.077 313.814 268.713ZM290.839 286.888L266.284 262.183L281.893 246.479L306.448 271.183L290.839 286.888Z" fill="black"/>
</g>
<g clip-path="url(#clip6_2_804)">
<path d="M158.682 922.171H158.013C159.512 917.313 158.067 911.398 154.146 908.155C154.245 903.018 151.173 897.568 146.254 895.966C145.049 890.409 140.243 886.76 135.645 886.691C132.826 882.122 127.372 880.329 122.856 881.97C119.061 878.75 113.476 878.586 109.488 881.969C104.981 880.332 99.5219 882.114 96.6991 886.692C92.1274 886.76 87.3004 890.386 86.0907 895.966C81.1698 897.566 78.1 903.02 78.1981 908.154C74.3114 911.369 72.8172 917.266 74.3309 922.171H73.6616C71.7052 922.171 70.119 923.767 70.119 925.735V942.367C70.119 956.307 79.0038 968.196 91.3743 972.61V978.009C91.3741 983.904 96.1417 988.701 102.002 988.701H130.342C136.202 988.701 140.97 983.904 140.97 978.009V972.61C153.34 968.197 162.225 956.307 162.225 942.368V925.735C162.225 923.767 160.639 922.171 158.682 922.171ZM83.2965 913.088C84.8023 912.408 85.6209 910.752 85.2512 909.133C84.5939 906.255 86.5378 902.374 89.1648 902.46C91.1623 902.521 92.7956 900.871 92.7286 898.863C92.6101 895.31 95.6764 893.124 97.6559 893.791C99.4986 894.41 101.481 893.381 102.056 891.525C103.011 888.443 106.251 887.559 108.032 889.033C109.627 890.351 112.011 889.98 113.134 888.235C114.656 885.868 117.68 885.858 119.21 888.236C120.332 889.979 122.715 890.353 124.311 889.034C126.101 887.555 129.336 888.453 130.288 891.525C130.866 893.387 132.852 894.408 134.688 893.791C136.609 893.144 139.736 895.255 139.616 898.864C139.549 900.866 141.176 902.521 143.178 902.46C145.813 902.365 147.745 906.274 147.092 909.133C146.723 910.752 147.541 912.408 149.047 913.088C151.55 914.22 152.535 918.9 150.814 921.35C150.532 921.75 150.209 922.034 149.889 922.171H82.454C79.8384 921.048 80.107 914.53 83.2965 913.088ZM133.885 978.009C133.885 979.974 132.296 981.573 130.342 981.573H102.002C100.048 981.573 98.4591 979.974 98.4591 978.009V974.245C99.6228 974.375 100.804 974.445 102.002 974.445H130.342C131.54 974.445 132.721 974.376 133.885 974.245V978.009ZM155.14 942.368C155.14 956.124 144.016 967.316 130.342 967.316H102.002C88.3282 967.316 77.2041 956.124 77.2041 942.368V929.299H155.14V942.368Z" fill="black"/>
<path d="M102.002 953.06C96.1417 953.06 91.3741 948.263 91.3741 942.367C91.3741 940.399 89.7881 938.803 87.8315 938.803C85.8751 938.803 84.2889 940.399 84.2889 942.367C84.2889 952.194 92.2349 960.188 102.002 960.188C103.958 960.188 105.544 958.592 105.544 956.624C105.544 954.656 103.958 953.06 102.002 953.06Z" fill="black"/>
<path d="M116.173 915.044C118.129 915.044 119.715 913.448 119.715 911.48C119.715 909.511 118.129 907.916 116.173 907.916C114.216 907.916 112.63 909.511 112.63 911.48C112.63 913.448 114.216 915.044 116.173 915.044Z" fill="black"/>
<path d="M130.343 907.913C132.299 907.913 133.885 906.317 133.885 904.349C133.885 902.381 132.299 900.785 130.343 900.785C128.386 900.785 126.8 902.381 126.8 904.349C126.8 906.317 128.386 907.913 130.343 907.913Z" fill="black"/>
<path d="M102.002 907.913C103.959 907.913 105.545 906.317 105.545 904.349C105.545 902.381 103.959 900.785 102.002 900.785C100.046 900.785 98.4598 902.381 98.4598 904.349C98.4598 906.317 100.046 907.913 102.002 907.913Z" fill="black"/>
</g>
<g clip-path="url(#clip7_2_804)">
<path d="M563.09 533.001H463.75C461.496 533.001 459.842 535.136 460.388 537.333L461.229 540.716C462.935 547.584 468.529 552.619 475.301 553.701V567.866H464.905C462.992 567.866 461.44 569.427 461.44 571.353V585.298C461.44 587.224 462.992 588.785 464.905 588.785H475.301V619.794L472.5 632.947H468.371C466.457 632.947 464.905 634.508 464.905 636.433C464.905 638.358 466.457 639.919 468.371 639.919C469.775 639.919 501.571 639.919 503.024 639.919C504.938 639.919 506.489 638.358 506.489 636.433C506.489 634.508 504.938 632.947 503.024 632.947H498.895L496.094 619.794V588.785H530.747V619.794L527.946 632.947H523.816C521.903 632.947 520.351 634.508 520.351 636.433C520.351 638.358 521.903 639.919 523.816 639.919C525.221 639.919 557.016 639.919 558.47 639.919C560.384 639.919 561.935 638.358 561.935 636.433C561.935 634.508 560.384 632.947 558.47 632.947H554.341L551.539 619.794V588.785H561.936C563.849 588.785 565.401 587.224 565.401 585.298V571.353C565.401 569.427 563.849 567.866 561.936 567.866H551.539V553.701C558.312 552.619 563.905 547.584 565.612 540.716L566.452 537.333C566.999 535.132 565.341 533.001 563.09 533.001ZM475.301 581.812H468.371V574.839H475.301V581.812ZM551.539 574.839H558.47V581.812H551.539V574.839ZM479.588 632.947L481.568 623.649H489.827L491.807 632.947H479.588ZM482.232 616.676V553.92H489.163V616.676H482.232ZM530.747 581.812H496.094V574.839C499.495 574.839 527.304 574.839 530.747 574.839V581.812ZM496.094 567.866V553.92H503.024V567.866H496.094ZM509.955 567.866V553.92H516.885V567.866H509.955ZM530.747 567.866H523.816V553.92H530.747V567.866ZM535.034 632.947L537.014 623.649H545.273L547.253 632.947H535.034ZM537.678 616.676V553.92H544.608V616.676H537.678ZM548.802 546.947C545.424 546.947 481.494 546.947 478.038 546.947C473.59 546.947 469.69 544.126 468.236 539.975H558.605C557.151 544.126 553.25 546.947 548.802 546.947Z" fill="black"/>
</g>
<g clip-path="url(#clip8_2_804)">
<path d="M491.51 929.647C493.424 929.647 494.975 928.086 494.975 926.161C494.975 924.235 493.424 922.674 491.51 922.674C489.596 922.674 488.044 924.235 488.044 926.161C488.044 928.086 489.596 929.647 491.51 929.647Z" fill="black"/>
<path d="M531.94 929.647C533.854 929.647 535.406 928.086 535.406 926.161C535.406 924.235 533.854 922.674 531.94 922.674C530.026 922.674 528.475 924.235 528.475 926.161C528.475 928.086 530.026 929.647 531.94 929.647Z" fill="black"/>
<path d="M511.148 915.701C513.061 915.701 514.613 914.14 514.613 912.214C514.613 910.288 513.061 908.727 511.148 908.727C509.234 908.727 507.682 910.288 507.682 912.214C507.682 914.14 509.234 915.701 511.148 915.701Z" fill="black"/>
<path d="M563.186 982.885C562.874 982.592 556.58 976.748 547.461 973.545C555.559 961.801 554.816 946.493 554.774 945.763C554.675 943.989 553.265 942.574 551.501 942.478C550.905 942.447 538.304 941.844 527.101 947.468C523.202 935.745 513.924 927.458 513.428 927.022C512.122 925.873 510.172 925.873 508.866 927.022C508.37 927.458 499.092 935.745 495.193 947.468C483.989 941.844 471.388 942.445 470.793 942.478C469.029 942.573 467.619 943.989 467.519 945.763C467.478 946.493 466.735 961.801 474.833 973.545C465.714 976.748 459.42 982.592 459.108 982.885C457.643 984.264 457.645 986.603 459.108 987.979C459.603 988.444 471.398 999.378 486.311 999.378C489.667 999.378 492.863 998.824 495.81 997.96C499.883 1002.62 508.178 1005.55 510.067 1006.18C510.769 1006.41 511.525 1006.41 512.227 1006.18C514.116 1005.55 522.411 1002.62 526.484 997.96C529.431 998.824 532.628 999.378 535.983 999.378C550.896 999.378 562.691 988.444 563.186 987.979C564.651 986.6 564.649 984.262 563.186 982.885ZM511.152 934.56C514.885 938.587 521.874 947.473 521.874 957.539C521.874 967.563 514.872 976.48 511.142 980.519C507.41 976.492 500.421 967.605 500.421 957.539C500.421 947.515 507.422 938.598 511.152 934.56ZM486.311 992.405C478.259 992.405 471.04 988.252 467.067 985.431C469.954 983.38 474.556 980.632 479.942 979.282C486.391 984.882 494.636 987.254 501.058 988.241C497.08 990.407 491.896 992.405 486.311 992.405ZM483.106 972.712C476.229 965.661 474.765 954.88 474.484 949.48C478.894 949.693 486.907 950.65 493.645 954.543C492.64 964.346 496.788 973.685 502.818 981.449C488.915 979.522 483.867 973.298 483.106 972.712ZM511.147 999.175C508.207 998.101 505.109 996.577 502.992 995.104C506.501 993.339 509.313 991.379 511.147 989.96C512.981 991.379 515.793 993.339 519.302 995.104C517.184 996.578 514.086 998.101 511.147 999.175ZM528.649 954.543C535.392 950.647 543.412 949.691 547.819 949.479C547.547 954.87 546.099 965.629 539.188 972.712C538.429 973.296 533.414 979.489 519.488 981.433C525.526 973.654 529.652 964.324 528.649 954.543ZM535.983 992.405C530.398 992.405 525.214 990.407 521.236 988.241C527.659 987.254 535.904 984.882 542.353 979.282C547.739 980.632 552.341 983.381 555.227 985.431C551.253 988.252 544.035 992.405 535.983 992.405Z" fill="black"/>
</g>
<g clip-path="url(#clip9_2_804)">
<path d="M122.2 657.792C125.587 652.619 125.762 646.081 122.389 640.713L103.494 609.148C103.479 609.123 103.463 609.098 103.448 609.074C97.4624 599.625 83.9266 599.633 77.9461 609.074C77.9305 609.098 77.9153 609.123 77.9003 609.148L72.4122 618.316L66.9241 609.148C66.9093 609.123 66.8939 609.098 66.8783 609.074C60.8929 599.625 47.3573 599.633 41.3768 609.074C41.3612 609.098 41.346 609.123 41.331 609.148L22.4359 640.713C19.0614 646.082 19.2384 652.621 22.624 657.792C21.0407 658.097 19.8436 659.496 19.8436 661.177C19.8436 670.687 27.5334 678.424 36.9855 678.424H107.839C117.291 678.424 124.981 670.687 124.981 661.177C124.981 659.496 123.784 658.097 122.2 657.792ZM28.2451 644.378C28.2601 644.354 28.2749 644.33 28.2893 644.306L47.1803 612.748C50.4744 607.6 57.7825 607.603 61.0744 612.748L69.4529 626.745C69.4566 626.751 69.4605 626.757 69.4642 626.763L79.9656 644.306C79.98 644.33 79.9948 644.354 80.0098 644.378C81.7248 647.09 81.8526 650.404 80.3521 653.241C78.8424 656.093 76.177 657.728 73.0395 657.728H67.841V640.482C67.841 634.776 63.2271 630.134 57.5558 630.134H50.6991C45.0278 630.134 40.4139 634.776 40.4139 640.482V657.728H35.2154C28.5336 657.728 24.6285 650.098 28.2451 644.378ZM60.9843 640.482V657.728H47.2706V640.482C47.2706 638.58 48.8087 637.032 50.6991 637.032H57.5558C59.4462 637.033 60.9843 638.58 60.9843 640.482ZM107.839 671.525H36.9855C32.5157 671.525 28.7026 668.642 27.2878 664.627C30.5134 664.627 111.795 664.627 117.536 664.627C116.122 668.642 112.309 671.525 107.839 671.525ZM85.8186 640.713L84.4798 638.476C85.1092 637.591 86.1361 637.032 87.2684 637.032H94.1251C96.0155 637.032 97.5535 638.58 97.5535 640.482V657.728H85.6712C85.9307 657.327 86.1765 656.913 86.4045 656.482C89.0744 651.435 88.8545 645.543 85.8186 640.713ZM109.609 657.728H104.41V640.482C104.41 634.776 99.7965 630.134 94.1253 630.134H87.2686C84.8673 630.134 82.6222 630.972 80.8443 632.402L76.4144 625.002L83.7498 612.747C87.0437 607.6 94.3524 607.603 97.6443 612.748L116.535 644.306C116.549 644.33 116.564 644.354 116.579 644.378C120.195 650.097 116.292 657.728 109.609 657.728Z" fill="black"/>
</g>
<g clip-path="url(#clip10_2_804)">
<path d="M611.052 806.685C605.381 806.685 600.767 802.043 600.767 796.337C600.767 794.433 599.232 792.888 597.339 792.888C595.445 792.888 593.91 794.432 593.91 796.337C593.91 805.847 601.6 813.584 611.052 813.584C612.945 813.584 614.48 812.039 614.48 810.134C614.481 808.23 612.945 806.685 611.052 806.685Z" fill="black"/>
<path d="M681.905 758.396H641.908V751.497H681.906C683.799 751.497 685.334 749.953 685.334 748.048C685.334 746.143 683.799 744.598 681.906 744.598H641.318C639.903 740.584 636.092 737.7 631.623 737.7C628.99 737.7 626.587 738.701 624.766 740.343C622.945 738.701 620.541 737.7 617.909 737.7C615.277 737.7 612.873 738.701 611.052 740.343C609.231 738.701 606.828 737.7 604.196 737.7C599.726 737.7 595.915 740.584 594.5 744.598H583.625C581.732 744.599 580.197 746.143 580.197 748.048C580.197 749.953 581.732 751.497 583.625 751.497H593.91V758.396H583.625C581.732 758.396 580.197 759.94 580.197 761.845C580.197 763.75 581.732 765.294 583.625 765.294H593.91V778.229C593.91 778.521 593.928 778.808 593.959 779.091H583.625C581.732 779.091 580.197 780.635 580.197 782.541V796.338C580.197 809.828 588.795 821.334 600.767 825.605V830.83C600.767 836.536 605.381 841.178 611.052 841.178H638.479C644.15 841.178 648.764 836.536 648.764 830.83V825.605C660.736 821.334 669.335 809.828 669.335 796.338V782.541C669.335 780.636 667.8 779.091 665.906 779.091H641.859C641.89 778.808 641.908 778.52 641.908 778.229V765.294H681.906C683.799 765.294 685.334 763.75 685.334 761.845C685.334 759.94 683.799 758.396 681.905 758.396ZM628.194 748.048C628.194 746.146 629.732 744.598 631.623 744.598C633.513 744.598 635.051 746.146 635.051 748.048V778.229C635.051 778.704 634.666 779.091 634.194 779.091H629.051C628.578 779.091 628.194 778.704 628.194 778.229V748.048ZM614.481 748.048C614.481 746.146 616.019 744.598 617.909 744.598C619.8 744.598 621.338 746.146 621.338 748.048V778.229C621.338 778.704 620.953 779.091 620.48 779.091H615.338C614.865 779.091 614.48 778.704 614.48 778.229V748.048H614.481ZM600.767 748.048C600.767 746.146 602.305 744.598 604.195 744.598C606.086 744.598 607.624 746.146 607.624 748.048V778.229C607.624 778.704 607.24 779.091 606.767 779.091H601.624C601.152 779.091 600.767 778.704 600.767 778.229V748.048H600.767ZM641.908 830.83C641.908 832.732 640.37 834.28 638.479 834.28H611.052C609.162 834.28 607.624 832.732 607.624 830.83V827.381H611.052H638.479H641.908V830.83ZM662.478 785.99V796.337C662.478 809.651 651.712 820.482 638.479 820.482H611.052C597.819 820.482 587.053 809.651 587.053 796.337V785.99C587.744 785.99 661.692 785.99 662.478 785.99Z" fill="black"/>
</g>
<g clip-path="url(#clip11_2_804)">
<path d="M363.457 773.151L350.103 759.716L365.274 744.452C366.631 743.088 366.631 740.876 365.274 739.511C363.918 738.147 361.719 738.147 360.363 739.511L345.192 754.775L331.838 741.34C328.452 737.932 323.219 737.284 319.112 739.763L302.14 750.009C299.951 751.33 297.926 752.921 296.12 754.737L263.285 787.772C259.223 791.859 259.223 798.508 263.285 802.595L302.572 842.122C306.634 846.208 313.243 846.209 317.305 842.122L350.14 809.087C351.945 807.271 353.527 805.233 354.84 803.03L365.024 785.955C367.488 781.823 366.843 776.558 363.457 773.151ZM359.068 782.36L348.885 799.435C347.863 801.149 346.633 802.733 345.229 804.146L312.395 837.181C311.037 838.546 308.841 838.546 307.483 837.181L268.196 797.654C266.842 796.292 266.842 794.075 268.196 792.713L301.031 759.678C302.435 758.265 304.011 757.028 305.713 756L322.685 745.755C324.052 744.929 325.797 745.144 326.927 746.28L340.281 759.716L332.592 767.452L331.498 761.952C330.744 758.154 327.986 755.098 324.302 753.976C320.618 752.853 316.638 753.857 313.916 756.596L312.625 757.895L312.625 757.895C309.904 760.633 308.906 764.637 310.021 768.343C311.136 772.05 314.174 774.824 317.949 775.584L327.508 777.507L329.42 787.125C330.175 790.923 332.932 793.979 336.616 795.101C340.309 796.226 344.287 795.212 347.002 792.481L348.293 791.182C351.015 788.443 352.013 784.44 350.897 780.733C349.782 777.027 346.744 774.252 342.97 773.493L337.503 772.393L345.192 764.657L358.546 778.092C359.675 779.228 359.89 780.983 359.068 782.36ZM326.033 770.085L319.311 768.732C317.47 768.362 316.85 766.921 316.668 766.319C316.487 765.716 316.209 764.171 317.536 762.836C317.536 762.836 317.536 762.836 317.537 762.836L318.828 761.537C319.817 760.541 321.104 760.303 322.29 760.663C322.888 760.846 324.32 761.47 324.688 763.322L326.033 770.085ZM334.886 778.992L341.608 780.345C343.449 780.715 344.069 782.156 344.251 782.758C344.432 783.36 344.71 784.905 343.382 786.241L342.091 787.54C340.764 788.875 339.228 788.596 338.63 788.413C338.031 788.231 336.599 787.607 336.231 785.755L334.886 778.992Z" fill="black"/>
<path d="M332.915 801.713L303.449 772.068C302.093 770.704 299.894 770.704 298.538 772.068L278.018 792.713C276.661 794.077 276.661 796.29 278.018 797.654L307.483 827.299C308.839 828.664 311.038 828.664 312.394 827.299L332.915 806.653C334.271 805.289 334.271 803.077 332.915 801.713ZM309.939 819.888L285.384 795.183L300.993 779.479L325.548 804.183L309.939 819.888Z" fill="black"/>
</g>
<g clip-path="url(#clip12_2_804)">
<path d="M878.457 389.171H877.788C879.287 384.313 877.842 378.398 873.921 375.155C874.02 370.018 870.948 364.568 866.029 362.966C864.824 357.409 860.018 353.76 855.42 353.691C852.601 349.122 847.147 347.329 842.631 348.97C838.836 345.75 833.251 345.586 829.263 348.969C824.756 347.332 819.297 349.114 816.474 353.692C811.902 353.76 807.075 357.386 805.866 362.966C800.945 364.566 797.875 370.02 797.973 375.154C794.086 378.369 792.592 384.266 794.106 389.171H793.437C791.48 389.171 789.894 390.766 789.894 392.735V409.367C789.894 423.307 798.779 435.196 811.149 439.61V445.009C811.149 450.904 815.917 455.701 821.777 455.701H850.117C855.977 455.701 860.745 450.904 860.745 445.009V439.61C873.115 435.196 882 423.307 882 409.367V392.735C882 390.767 880.414 389.171 878.457 389.171ZM803.072 380.088C804.577 379.408 805.396 377.752 805.026 376.133C804.369 373.255 806.313 369.374 808.94 369.46C810.937 369.521 812.571 367.871 812.504 365.863C812.385 362.31 815.451 360.124 817.431 360.791C819.274 361.41 821.256 360.381 821.831 358.524C822.786 355.443 826.026 354.559 827.807 356.033C829.402 357.351 831.786 356.98 832.909 355.235C834.431 352.868 837.455 352.858 838.985 355.236C840.107 356.979 842.49 357.353 844.086 356.034C845.876 354.555 849.111 355.453 850.064 358.525C850.641 360.387 852.627 361.408 854.463 360.791C856.384 360.144 859.511 362.255 859.391 365.864C859.324 367.866 860.951 369.521 862.953 369.46C865.588 369.365 867.521 373.274 866.868 376.133C866.498 377.752 867.316 379.408 868.822 380.088C871.325 381.22 872.31 385.9 870.589 388.35C870.307 388.75 869.984 389.034 869.665 389.171H802.229C799.613 388.048 799.882 381.53 803.072 380.088ZM853.66 445.009C853.66 446.974 852.071 448.573 850.117 448.573H821.777C819.823 448.573 818.234 446.974 818.234 445.009V441.245C819.398 441.375 820.579 441.445 821.777 441.445H850.117C851.315 441.445 852.496 441.375 853.66 441.245V445.009ZM874.915 409.367C874.915 423.124 863.791 434.316 850.117 434.316H821.777C808.103 434.316 796.979 423.124 796.979 409.367V396.299H874.915V409.367Z" fill="black"/>
<path d="M821.777 420.06C815.917 420.06 811.149 415.263 811.149 409.367C811.149 407.399 809.563 405.803 807.607 405.803C805.65 405.803 804.064 407.399 804.064 409.367C804.064 419.194 812.01 427.188 821.777 427.188C823.733 427.188 825.319 425.592 825.319 423.624C825.319 421.656 823.733 420.06 821.777 420.06Z" fill="black"/>
<path d="M835.948 382.044C837.904 382.044 839.49 380.448 839.49 378.48C839.49 376.511 837.904 374.916 835.948 374.916C833.991 374.916 832.405 376.511 832.405 378.48C832.405 380.448 833.991 382.044 835.948 382.044Z" fill="black"/>
<path d="M850.118 374.913C852.074 374.913 853.66 373.317 853.66 371.349C853.66 369.381 852.074 367.785 850.118 367.785C848.161 367.785 846.575 369.381 846.575 371.349C846.575 373.317 848.161 374.913 850.118 374.913Z" fill="black"/>
<path d="M821.777 374.913C823.734 374.913 825.32 373.317 825.32 371.349C825.32 369.381 823.734 367.785 821.777 367.785C819.821 367.785 818.235 369.381 818.235 371.349C818.235 373.317 819.821 374.913 821.777 374.913Z" fill="black"/>
</g>
<g clip-path="url(#clip13_2_804)">
<path d="M1282.87 0.00149536H1183.53C1181.27 0.00149536 1179.62 2.13637 1180.16 4.33347L1181 7.71589C1182.71 14.5837 1188.3 19.6188 1195.08 20.7005V34.8661H1184.68C1182.77 34.8661 1181.21 36.4271 1181.21 38.3525V52.2984C1181.21 54.2238 1182.77 55.7848 1184.68 55.7848H1195.08V86.7936L1192.28 99.9466H1188.15C1186.23 99.9466 1184.68 101.508 1184.68 103.433C1184.68 105.358 1186.23 106.919 1188.15 106.919C1189.55 106.919 1221.35 106.919 1222.8 106.919C1224.71 106.919 1226.26 105.358 1226.26 103.433C1226.26 101.508 1224.71 99.9466 1222.8 99.9466H1218.67L1215.87 86.7936V55.7848H1250.52V86.7936L1247.72 99.9466H1243.59C1241.68 99.9466 1240.13 101.508 1240.13 103.433C1240.13 105.358 1241.68 106.919 1243.59 106.919C1245 106.919 1276.79 106.919 1278.25 106.919C1280.16 106.919 1281.71 105.358 1281.71 103.433C1281.71 101.508 1280.16 99.9466 1278.25 99.9466H1274.12L1271.31 86.7936V55.7848H1281.71C1283.62 55.7848 1285.18 54.2238 1285.18 52.2984V38.3525C1285.18 36.4271 1283.62 34.8661 1281.71 34.8661H1271.31V20.7005C1278.09 19.6188 1283.68 14.5837 1285.39 7.71589L1286.23 4.33347C1286.77 2.1324 1285.12 0.00149536 1282.87 0.00149536ZM1195.08 48.812H1188.15V41.8392H1195.08V48.812ZM1271.31 41.839H1278.24V48.8118H1271.31V41.839ZM1199.36 99.9466L1201.34 90.6493H1209.6L1211.58 99.9466H1199.36ZM1202.01 83.6764V20.9202H1208.94V83.6764H1202.01ZM1250.52 48.812H1215.87V41.8392C1219.27 41.8392 1247.08 41.8392 1250.52 41.8392V48.812ZM1215.87 34.8661V20.9202H1222.8V34.8661H1215.87ZM1229.73 34.8661V20.9202H1236.66V34.8661H1229.73ZM1250.52 34.8661H1243.59V20.9202H1250.52V34.8661ZM1254.81 99.9466L1256.79 90.6493H1265.05L1267.03 99.9466H1254.81ZM1257.45 83.6764V20.9202H1264.38V83.6764H1257.45ZM1268.58 13.9474C1265.2 13.9474 1201.27 13.9474 1197.81 13.9474C1193.37 13.9474 1189.47 11.1259 1188.01 6.97454H1278.38C1276.93 11.1259 1273.03 13.9474 1268.58 13.9474Z" fill="black"/>
</g>
<g clip-path="url(#clip14_2_804)">
<path d="M1211.29 396.647C1213.2 396.647 1214.75 395.086 1214.75 393.161C1214.75 391.235 1213.2 389.674 1211.29 389.674C1209.37 389.674 1207.82 391.235 1207.82 393.161C1207.82 395.086 1209.37 396.647 1211.29 396.647Z" fill="black"/>
<path d="M1251.72 396.647C1253.63 396.647 1255.18 395.086 1255.18 393.161C1255.18 391.235 1253.63 389.674 1251.72 389.674C1249.8 389.674 1248.25 391.235 1248.25 393.161C1248.25 395.086 1249.8 396.647 1251.72 396.647Z" fill="black"/>
<path d="M1230.92 382.701C1232.84 382.701 1234.39 381.14 1234.39 379.214C1234.39 377.288 1232.84 375.727 1230.92 375.727C1229.01 375.727 1227.46 377.288 1227.46 379.214C1227.46 381.14 1229.01 382.701 1230.92 382.701Z" fill="black"/>
<path d="M1282.96 449.885C1282.65 449.592 1276.35 443.748 1267.24 440.545C1275.33 428.801 1274.59 413.493 1274.55 412.763C1274.45 410.989 1273.04 409.574 1271.28 409.478C1270.68 409.447 1258.08 408.844 1246.88 414.468C1242.98 402.745 1233.7 394.458 1233.2 394.022C1231.9 392.873 1229.95 392.873 1228.64 394.022C1228.15 394.458 1218.87 402.745 1214.97 414.468C1203.76 408.844 1191.16 409.445 1190.57 409.478C1188.8 409.574 1187.39 410.989 1187.29 412.763C1187.25 413.493 1186.51 428.801 1194.61 440.545C1185.49 443.748 1179.2 449.592 1178.88 449.885C1177.42 451.264 1177.42 453.603 1178.88 454.979C1179.38 455.444 1191.17 466.378 1206.09 466.378C1209.44 466.378 1212.64 465.824 1215.58 464.961C1219.66 469.62 1227.95 472.555 1229.84 473.178C1230.54 473.41 1231.3 473.41 1232 473.178C1233.89 472.555 1242.19 469.62 1246.26 464.961C1249.21 465.824 1252.4 466.378 1255.76 466.378C1270.67 466.378 1282.47 455.444 1282.96 454.979C1284.43 453.6 1284.42 451.262 1282.96 449.885ZM1230.93 401.56C1234.66 405.587 1241.65 414.473 1241.65 424.539C1241.65 434.564 1234.65 443.48 1230.92 447.519C1227.18 443.492 1220.2 434.605 1220.2 424.539C1220.2 414.515 1227.2 405.598 1230.93 401.56ZM1206.09 459.405C1198.03 459.405 1190.81 455.252 1186.84 452.431C1189.73 450.38 1194.33 447.632 1199.72 446.282C1206.17 451.882 1214.41 454.254 1220.83 455.241C1216.85 457.407 1211.67 459.405 1206.09 459.405ZM1202.88 439.712C1196 432.661 1194.54 421.88 1194.26 416.48C1198.67 416.693 1206.68 417.65 1213.42 421.543C1212.42 431.346 1216.56 440.685 1222.59 448.449C1208.69 446.522 1203.64 440.298 1202.88 439.712ZM1230.92 466.175C1227.98 465.101 1224.88 463.577 1222.77 462.104C1226.28 460.339 1229.09 458.379 1230.92 456.96C1232.76 458.379 1235.57 460.339 1239.08 462.104C1236.96 463.578 1233.86 465.101 1230.92 466.175ZM1248.42 421.543C1255.17 417.647 1263.19 416.691 1267.59 416.479C1267.32 421.87 1265.87 432.629 1258.96 439.712C1258.2 440.296 1253.19 446.489 1239.26 448.433C1245.3 440.654 1249.43 431.324 1248.42 421.543ZM1255.76 459.405C1250.17 459.405 1244.99 457.407 1241.01 455.241C1247.43 454.254 1255.68 451.882 1262.13 446.282C1267.51 447.632 1272.12 450.381 1275 452.431C1271.03 455.252 1263.81 459.405 1255.76 459.405Z" fill="black"/>
</g>
<g clip-path="url(#clip15_2_804)">
<path d="M841.975 124.792C845.362 119.619 845.537 113.081 842.164 107.713L823.269 76.1478C823.254 76.123 823.238 76.0982 823.223 76.0736C817.237 66.6252 803.702 66.6332 797.721 76.0736C797.706 76.0982 797.69 76.123 797.675 76.1478L792.187 85.3162L786.699 76.1478C786.684 76.123 786.669 76.0982 786.653 76.0736C780.668 66.6252 767.132 66.6332 761.152 76.0736C761.136 76.0982 761.121 76.123 761.106 76.1478L742.211 107.713C738.836 113.082 739.013 119.621 742.399 124.792C740.816 125.097 739.619 126.496 739.619 128.177C739.619 137.687 747.308 145.424 756.761 145.424H827.614C837.066 145.424 844.756 137.687 844.756 128.177C844.756 126.496 843.559 125.097 841.975 124.792ZM748.02 111.378C748.035 111.354 748.05 111.33 748.064 111.306L766.955 79.7478C770.25 74.5998 777.558 74.6033 780.849 79.7478L789.228 93.7447C789.232 93.7509 789.236 93.7571 789.239 93.7633L799.741 111.306C799.755 111.33 799.77 111.354 799.785 111.378C801.5 114.09 801.628 117.404 800.127 120.241C798.617 123.093 795.952 124.728 792.815 124.728H787.616V107.482C787.616 101.776 783.002 97.1343 777.331 97.1343H770.474C764.803 97.1343 760.189 101.776 760.189 107.482V124.728H754.99C748.309 124.728 744.404 117.098 748.02 111.378ZM780.759 107.482V124.728H767.046V107.482C767.046 105.58 768.584 104.032 770.474 104.032H777.331C779.221 104.033 780.759 105.58 780.759 107.482ZM827.614 138.525H756.761C752.291 138.525 748.478 135.642 747.063 131.627C750.288 131.627 831.57 131.627 837.311 131.627C835.897 135.642 832.084 138.525 827.614 138.525ZM805.594 107.713L804.255 105.476C804.884 104.591 805.911 104.032 807.043 104.032H813.9C815.791 104.032 817.329 105.58 817.329 107.482V124.728H805.446C805.706 124.327 805.952 123.913 806.18 123.482C808.849 118.435 808.63 112.543 805.594 107.713ZM829.384 124.728H824.186V107.482C824.186 101.776 819.572 97.1339 813.9 97.1339H807.044C804.642 97.1339 802.397 97.9725 800.619 99.4023L796.189 92.0018L803.525 79.7473C806.819 74.5996 814.127 74.6027 817.419 79.7476L836.31 111.306C836.324 111.33 836.339 111.354 836.354 111.378C839.97 117.097 836.067 124.728 829.384 124.728Z" fill="black"/>
</g>
<g clip-path="url(#clip16_2_804)">
<path d="M1083.23 240.151L1069.88 226.716L1085.05 211.452C1086.41 210.088 1086.41 207.876 1085.05 206.511C1083.69 205.147 1081.49 205.147 1080.14 206.511L1064.97 221.775L1051.61 208.34C1048.23 204.932 1042.99 204.284 1038.89 206.763L1021.91 217.009C1019.73 218.33 1017.7 219.921 1015.9 221.737L983.06 254.772C978.998 258.859 978.998 265.508 983.06 269.595L1022.35 309.122C1026.41 313.208 1033.02 313.209 1037.08 309.122L1069.92 276.087C1071.72 274.271 1073.3 272.233 1074.62 270.03L1084.8 252.955C1087.26 248.823 1086.62 243.558 1083.23 240.151ZM1078.84 249.36L1068.66 266.435C1067.64 268.149 1066.41 269.733 1065 271.146L1032.17 304.181C1030.81 305.546 1028.62 305.546 1027.26 304.181L987.971 264.654C986.617 263.292 986.617 261.075 987.971 259.713L1020.81 226.678C1022.21 225.265 1023.79 224.028 1025.49 223L1042.46 212.755C1043.83 211.929 1045.57 212.144 1046.7 213.28L1060.06 226.716L1052.37 234.452L1051.27 228.952C1050.52 225.154 1047.76 222.098 1044.08 220.976C1040.39 219.853 1036.41 220.857 1033.69 223.596L1032.4 224.895L1032.4 224.895C1029.68 227.633 1028.68 231.637 1029.8 235.343C1030.91 239.05 1033.95 241.824 1037.72 242.584L1047.28 244.507L1049.19 254.125C1049.95 257.923 1052.71 260.979 1056.39 262.101C1060.08 263.226 1064.06 262.212 1066.78 259.481L1068.07 258.182C1070.79 255.443 1071.79 251.44 1070.67 247.733C1069.56 244.027 1066.52 241.252 1062.74 240.493L1057.28 239.393L1064.97 231.657L1078.32 245.092C1079.45 246.228 1079.66 247.983 1078.84 249.36ZM1045.81 237.085L1039.09 235.732C1037.24 235.362 1036.62 233.921 1036.44 233.319C1036.26 232.716 1035.98 231.171 1037.31 229.836C1037.31 229.836 1037.31 229.836 1037.31 229.836L1038.6 228.537C1039.59 227.541 1040.88 227.303 1042.06 227.663C1042.66 227.846 1044.1 228.47 1044.46 230.322L1045.81 237.085ZM1054.66 245.992L1061.38 247.345C1063.22 247.715 1063.84 249.156 1064.03 249.758C1064.21 250.36 1064.49 251.905 1063.16 253.241L1061.87 254.54C1060.54 255.875 1059 255.596 1058.4 255.413C1057.81 255.231 1056.37 254.607 1056.01 252.755L1054.66 245.992Z" fill="black"/>
<path d="M1052.69 268.713L1023.22 239.068C1021.87 237.704 1019.67 237.704 1018.31 239.068L997.793 259.713C996.436 261.077 996.436 263.29 997.793 264.654L1027.26 294.299C1028.61 295.664 1030.81 295.664 1032.17 294.299L1052.69 273.653C1054.05 272.289 1054.05 270.077 1052.69 268.713ZM1029.71 286.888L1005.16 262.183L1020.77 246.479L1045.32 271.183L1029.71 286.888Z" fill="black"/>
</g>
<g clip-path="url(#clip17_2_804)">
<path d="M878.457 922.171H877.788C879.287 917.313 877.842 911.398 873.921 908.155C874.02 903.018 870.948 897.568 866.029 895.966C864.824 890.409 860.018 886.76 855.42 886.691C852.601 882.122 847.147 880.329 842.631 881.97C838.836 878.75 833.251 878.586 829.263 881.969C824.756 880.332 819.297 882.114 816.474 886.692C811.902 886.76 807.075 890.386 805.866 895.966C800.945 897.566 797.875 903.02 797.973 908.154C794.086 911.369 792.592 917.266 794.106 922.171H793.437C791.48 922.171 789.894 923.767 789.894 925.735V942.367C789.894 956.307 798.779 968.196 811.149 972.61V978.009C811.149 983.904 815.917 988.701 821.777 988.701H850.117C855.977 988.701 860.745 983.904 860.745 978.009V972.61C873.115 968.197 882 956.307 882 942.368V925.735C882 923.767 880.414 922.171 878.457 922.171ZM803.072 913.088C804.577 912.408 805.396 910.752 805.026 909.133C804.369 906.255 806.313 902.374 808.94 902.46C810.937 902.521 812.571 900.871 812.504 898.863C812.385 895.31 815.451 893.124 817.431 893.791C819.274 894.41 821.256 893.381 821.831 891.525C822.786 888.443 826.026 887.559 827.807 889.033C829.402 890.351 831.786 889.98 832.909 888.235C834.431 885.868 837.455 885.858 838.985 888.236C840.107 889.979 842.49 890.353 844.086 889.034C845.876 887.555 849.111 888.453 850.064 891.525C850.641 893.387 852.627 894.408 854.463 893.791C856.384 893.144 859.511 895.255 859.391 898.864C859.324 900.866 860.951 902.521 862.953 902.46C865.588 902.365 867.521 906.274 866.868 909.133C866.498 910.752 867.316 912.408 868.822 913.088C871.325 914.22 872.31 918.9 870.589 921.35C870.307 921.75 869.984 922.034 869.665 922.171H802.229C799.613 921.048 799.882 914.53 803.072 913.088ZM853.66 978.009C853.66 979.974 852.071 981.573 850.117 981.573H821.777C819.823 981.573 818.234 979.974 818.234 978.009V974.245C819.398 974.375 820.579 974.445 821.777 974.445H850.117C851.315 974.445 852.496 974.376 853.66 974.245V978.009ZM874.915 942.368C874.915 956.124 863.791 967.316 850.117 967.316H821.777C808.103 967.316 796.979 956.124 796.979 942.368V929.299H874.915V942.368Z" fill="black"/>
<path d="M821.777 953.06C815.917 953.06 811.149 948.263 811.149 942.367C811.149 940.399 809.563 938.803 807.607 938.803C805.65 938.803 804.064 940.399 804.064 942.367C804.064 952.194 812.01 960.188 821.777 960.188C823.733 960.188 825.319 958.592 825.319 956.624C825.319 954.656 823.733 953.06 821.777 953.06Z" fill="black"/>
<path d="M835.948 915.044C837.904 915.044 839.49 913.448 839.49 911.48C839.49 909.511 837.904 907.916 835.948 907.916C833.991 907.916 832.405 909.511 832.405 911.48C832.405 913.448 833.991 915.044 835.948 915.044Z" fill="black"/>
<path d="M850.118 907.913C852.074 907.913 853.66 906.317 853.66 904.349C853.66 902.381 852.074 900.785 850.118 900.785C848.161 900.785 846.575 902.381 846.575 904.349C846.575 906.317 848.161 907.913 850.118 907.913Z" fill="black"/>
<path d="M821.777 907.913C823.734 907.913 825.32 906.317 825.32 904.349C825.32 902.381 823.734 900.785 821.777 900.785C819.821 900.785 818.235 902.381 818.235 904.349C818.235 906.317 819.821 907.913 821.777 907.913Z" fill="black"/>
</g>
<g clip-path="url(#clip18_2_804)">
<path d="M1282.87 533.001H1183.53C1181.27 533.001 1179.62 535.136 1180.16 537.333L1181 540.716C1182.71 547.584 1188.3 552.619 1195.08 553.701V567.866H1184.68C1182.77 567.866 1181.21 569.427 1181.21 571.353V585.298C1181.21 587.224 1182.77 588.785 1184.68 588.785H1195.08V619.794L1192.28 632.947H1188.15C1186.23 632.947 1184.68 634.508 1184.68 636.433C1184.68 638.358 1186.23 639.919 1188.15 639.919C1189.55 639.919 1221.35 639.919 1222.8 639.919C1224.71 639.919 1226.26 638.358 1226.26 636.433C1226.26 634.508 1224.71 632.947 1222.8 632.947H1218.67L1215.87 619.794V588.785H1250.52V619.794L1247.72 632.947H1243.59C1241.68 632.947 1240.13 634.508 1240.13 636.433C1240.13 638.358 1241.68 639.919 1243.59 639.919C1245 639.919 1276.79 639.919 1278.25 639.919C1280.16 639.919 1281.71 638.358 1281.71 636.433C1281.71 634.508 1280.16 632.947 1278.25 632.947H1274.12L1271.31 619.794V588.785H1281.71C1283.62 588.785 1285.18 587.224 1285.18 585.298V571.353C1285.18 569.427 1283.62 567.866 1281.71 567.866H1271.31V553.701C1278.09 552.619 1283.68 547.584 1285.39 540.716L1286.23 537.333C1286.77 535.132 1285.12 533.001 1282.87 533.001ZM1195.08 581.812H1188.15V574.839H1195.08V581.812ZM1271.31 574.839H1278.24V581.812H1271.31V574.839ZM1199.36 632.947L1201.34 623.649H1209.6L1211.58 632.947H1199.36ZM1202.01 616.676V553.92H1208.94V616.676H1202.01ZM1250.52 581.812H1215.87V574.839C1219.27 574.839 1247.08 574.839 1250.52 574.839V581.812ZM1215.87 567.866V553.92H1222.8V567.866H1215.87ZM1229.73 567.866V553.92H1236.66V567.866H1229.73ZM1250.52 567.866H1243.59V553.92H1250.52V567.866ZM1254.81 632.947L1256.79 623.649H1265.05L1267.03 632.947H1254.81ZM1257.45 616.676V553.92H1264.38V616.676H1257.45ZM1268.58 546.947C1265.2 546.947 1201.27 546.947 1197.81 546.947C1193.37 546.947 1189.47 544.126 1188.01 539.975H1278.38C1276.93 544.126 1273.03 546.947 1268.58 546.947Z" fill="black"/>
</g>
<g clip-path="url(#clip19_2_804)">
<path d="M1211.29 929.647C1213.2 929.647 1214.75 928.086 1214.75 926.161C1214.75 924.235 1213.2 922.674 1211.29 922.674C1209.37 922.674 1207.82 924.235 1207.82 926.161C1207.82 928.086 1209.37 929.647 1211.29 929.647Z" fill="black"/>
<path d="M1251.72 929.647C1253.63 929.647 1255.18 928.086 1255.18 926.161C1255.18 924.235 1253.63 922.674 1251.72 922.674C1249.8 922.674 1248.25 924.235 1248.25 926.161C1248.25 928.086 1249.8 929.647 1251.72 929.647Z" fill="black"/>
<path d="M1230.92 915.701C1232.84 915.701 1234.39 914.14 1234.39 912.214C1234.39 910.288 1232.84 908.727 1230.92 908.727C1229.01 908.727 1227.46 910.288 1227.46 912.214C1227.46 914.14 1229.01 915.701 1230.92 915.701Z" fill="black"/>
<path d="M1282.96 982.885C1282.65 982.592 1276.35 976.748 1267.24 973.545C1275.33 961.801 1274.59 946.493 1274.55 945.763C1274.45 943.989 1273.04 942.574 1271.28 942.478C1270.68 942.447 1258.08 941.844 1246.88 947.468C1242.98 935.745 1233.7 927.458 1233.2 927.022C1231.9 925.873 1229.95 925.873 1228.64 927.022C1228.15 927.458 1218.87 935.745 1214.97 947.468C1203.76 941.844 1191.16 942.445 1190.57 942.478C1188.8 942.573 1187.39 943.989 1187.29 945.763C1187.25 946.493 1186.51 961.801 1194.61 973.545C1185.49 976.748 1179.2 982.592 1178.88 982.885C1177.42 984.264 1177.42 986.603 1178.88 987.979C1179.38 988.444 1191.17 999.378 1206.09 999.378C1209.44 999.378 1212.64 998.824 1215.58 997.96C1219.66 1002.62 1227.95 1005.55 1229.84 1006.18C1230.54 1006.41 1231.3 1006.41 1232 1006.18C1233.89 1005.55 1242.19 1002.62 1246.26 997.96C1249.21 998.824 1252.4 999.378 1255.76 999.378C1270.67 999.378 1282.47 988.444 1282.96 987.979C1284.43 986.6 1284.42 984.262 1282.96 982.885ZM1230.93 934.56C1234.66 938.587 1241.65 947.473 1241.65 957.539C1241.65 967.563 1234.65 976.48 1230.92 980.519C1227.18 976.492 1220.2 967.605 1220.2 957.539C1220.2 947.515 1227.2 938.598 1230.93 934.56ZM1206.09 992.405C1198.03 992.405 1190.81 988.252 1186.84 985.431C1189.73 983.38 1194.33 980.632 1199.72 979.282C1206.17 984.882 1214.41 987.254 1220.83 988.241C1216.85 990.407 1211.67 992.405 1206.09 992.405ZM1202.88 972.712C1196 965.661 1194.54 954.88 1194.26 949.48C1198.67 949.693 1206.68 950.65 1213.42 954.543C1212.42 964.346 1216.56 973.685 1222.59 981.449C1208.69 979.522 1203.64 973.298 1202.88 972.712ZM1230.92 999.175C1227.98 998.101 1224.88 996.577 1222.77 995.104C1226.28 993.339 1229.09 991.379 1230.92 989.96C1232.76 991.379 1235.57 993.339 1239.08 995.104C1236.96 996.578 1233.86 998.101 1230.92 999.175ZM1248.42 954.543C1255.17 950.647 1263.19 949.691 1267.59 949.479C1267.32 954.87 1265.87 965.629 1258.96 972.712C1258.2 973.296 1253.19 979.489 1239.26 981.433C1245.3 973.654 1249.43 964.324 1248.42 954.543ZM1255.76 992.405C1250.17 992.405 1244.99 990.407 1241.01 988.241C1247.43 987.254 1255.68 984.882 1262.13 979.282C1267.51 980.632 1272.12 983.381 1275 985.431C1271.03 988.252 1263.81 992.405 1255.76 992.405Z" fill="black"/>
</g>
<g clip-path="url(#clip20_2_804)">
<path d="M841.975 657.792C845.362 652.619 845.537 646.081 842.164 640.713L823.269 609.148C823.254 609.123 823.238 609.098 823.223 609.074C817.237 599.625 803.702 599.633 797.721 609.074C797.706 609.098 797.69 609.123 797.675 609.148L792.187 618.316L786.699 609.148C786.684 609.123 786.669 609.098 786.653 609.074C780.668 599.625 767.132 599.633 761.152 609.074C761.136 609.098 761.121 609.123 761.106 609.148L742.211 640.713C738.836 646.082 739.013 652.621 742.399 657.792C740.816 658.097 739.619 659.496 739.619 661.177C739.619 670.687 747.308 678.424 756.761 678.424H827.614C837.066 678.424 844.756 670.687 844.756 661.177C844.756 659.496 843.559 658.097 841.975 657.792ZM748.02 644.378C748.035 644.354 748.05 644.33 748.064 644.306L766.955 612.748C770.25 607.6 777.558 607.603 780.849 612.748L789.228 626.745C789.232 626.751 789.236 626.757 789.239 626.763L799.741 644.306C799.755 644.33 799.77 644.354 799.785 644.378C801.5 647.09 801.628 650.404 800.127 653.241C798.617 656.093 795.952 657.728 792.815 657.728H787.616V640.482C787.616 634.776 783.002 630.134 777.331 630.134H770.474C764.803 630.134 760.189 634.776 760.189 640.482V657.728H754.99C748.309 657.728 744.404 650.098 748.02 644.378ZM780.759 640.482V657.728H767.046V640.482C767.046 638.58 768.584 637.032 770.474 637.032H777.331C779.221 637.033 780.759 638.58 780.759 640.482ZM827.614 671.525H756.761C752.291 671.525 748.478 668.642 747.063 664.627C750.288 664.627 831.57 664.627 837.311 664.627C835.897 668.642 832.084 671.525 827.614 671.525ZM805.594 640.713L804.255 638.476C804.884 637.591 805.911 637.032 807.043 637.032H813.9C815.791 637.032 817.329 638.58 817.329 640.482V657.728H805.446C805.706 657.327 805.952 656.913 806.18 656.482C808.849 651.435 808.63 645.543 805.594 640.713ZM829.384 657.728H824.186V640.482C824.186 634.776 819.572 630.134 813.9 630.134H807.044C804.642 630.134 802.397 630.972 800.619 632.402L796.189 625.002L803.525 612.747C806.819 607.6 814.127 607.603 817.419 612.748L836.31 644.306C836.324 644.33 836.339 644.354 836.354 644.378C839.97 650.097 836.067 657.728 829.384 657.728Z" fill="black"/>
</g>
<g clip-path="url(#clip21_2_804)">
<path d="M1083.23 773.151L1069.88 759.716L1085.05 744.452C1086.41 743.088 1086.41 740.876 1085.05 739.511C1083.69 738.147 1081.49 738.147 1080.14 739.511L1064.97 754.775L1051.61 741.34C1048.23 737.932 1042.99 737.284 1038.89 739.763L1021.91 750.009C1019.73 751.33 1017.7 752.921 1015.9 754.737L983.06 787.772C978.998 791.859 978.998 798.508 983.06 802.595L1022.35 842.122C1026.41 846.208 1033.02 846.209 1037.08 842.122L1069.92 809.087C1071.72 807.271 1073.3 805.233 1074.62 803.03L1084.8 785.955C1087.26 781.823 1086.62 776.558 1083.23 773.151ZM1078.84 782.36L1068.66 799.435C1067.64 801.149 1066.41 802.733 1065 804.146L1032.17 837.181C1030.81 838.546 1028.62 838.546 1027.26 837.181L987.971 797.654C986.617 796.292 986.617 794.075 987.971 792.713L1020.81 759.678C1022.21 758.265 1023.79 757.028 1025.49 756L1042.46 745.755C1043.83 744.929 1045.57 745.144 1046.7 746.28L1060.06 759.716L1052.37 767.452L1051.27 761.952C1050.52 758.154 1047.76 755.098 1044.08 753.976C1040.39 752.853 1036.41 753.857 1033.69 756.596L1032.4 757.895L1032.4 757.895C1029.68 760.633 1028.68 764.637 1029.8 768.343C1030.91 772.05 1033.95 774.824 1037.72 775.584L1047.28 777.507L1049.19 787.125C1049.95 790.923 1052.71 793.979 1056.39 795.101C1060.08 796.226 1064.06 795.212 1066.78 792.481L1068.07 791.182C1070.79 788.443 1071.79 784.44 1070.67 780.733C1069.56 777.027 1066.52 774.252 1062.74 773.493L1057.28 772.393L1064.97 764.657L1078.32 778.092C1079.45 779.228 1079.66 780.983 1078.84 782.36ZM1045.81 770.085L1039.09 768.732C1037.24 768.362 1036.62 766.921 1036.44 766.319C1036.26 765.716 1035.98 764.171 1037.31 762.836C1037.31 762.836 1037.31 762.836 1037.31 762.836L1038.6 761.537C1039.59 760.541 1040.88 760.303 1042.06 760.663C1042.66 760.846 1044.1 761.47 1044.46 763.322L1045.81 770.085ZM1054.66 778.992L1061.38 780.345C1063.22 780.715 1063.84 782.156 1064.03 782.758C1064.21 783.36 1064.49 784.905 1063.16 786.241L1061.87 787.54C1060.54 788.875 1059 788.596 1058.4 788.413C1057.81 788.231 1056.37 787.607 1056.01 785.755L1054.66 778.992Z" fill="black"/>
<path d="M1052.69 801.713L1023.22 772.068C1021.87 770.704 1019.67 770.704 1018.31 772.068L997.793 792.713C996.436 794.077 996.436 796.29 997.793 797.654L1027.26 827.299C1028.61 828.664 1030.81 828.664 1032.17 827.299L1052.69 806.653C1054.05 805.289 1054.05 803.077 1052.69 801.713ZM1029.71 819.888L1005.16 795.183L1020.77 779.479L1045.32 804.183L1029.71 819.888Z" fill="black"/>
</g>
<defs>
<clipPath id="clip0_2_804">
<rect width="108.547" height="109.208" fill="white" transform="translate(42.7983 346.493)"/>
</clipPath>
<clipPath id="clip1_2_804">
<rect width="106.274" height="106.921" fill="white" transform="translate(441.183)"/>
</clipPath>
<clipPath id="clip2_2_804">
<rect width="106.274" height="106.921" fill="white" transform="translate(438.91 371.079)"/>
</clipPath>
<clipPath id="clip3_2_804">
<rect width="105.137" height="105.778" fill="white" transform="translate(0.743408 54.3182)"/>
</clipPath>
<clipPath id="clip4_2_804">
<rect width="105.137" height="105.778" fill="white" transform="translate(561.096 203.55)"/>
</clipPath>
<clipPath id="clip5_2_804">
<rect width="106.274" height="106.921" fill="white" transform="translate(241.138 205.266)"/>
</clipPath>
<clipPath id="clip6_2_804">
<rect width="108.547" height="109.208" fill="white" transform="translate(61.8985 879.493)"/>
</clipPath>
<clipPath id="clip7_2_804">
<rect width="106.274" height="106.921" fill="white" transform="translate(460.283 533)"/>
</clipPath>
<clipPath id="clip8_2_804">
<rect width="106.274" height="106.921" fill="white" transform="translate(458.01 904.079)"/>
</clipPath>
<clipPath id="clip9_2_804">
<rect width="105.137" height="105.778" fill="white" transform="translate(19.8436 587.318)"/>
</clipPath>
<clipPath id="clip10_2_804">
<rect width="105.137" height="105.778" fill="white" transform="translate(580.197 736.55)"/>
</clipPath>
<clipPath id="clip11_2_804">
<rect width="106.274" height="106.921" fill="white" transform="translate(260.238 738.266)"/>
</clipPath>
<clipPath id="clip12_2_804">
<rect width="108.547" height="109.208" fill="white" transform="translate(781.674 346.493)"/>
</clipPath>
<clipPath id="clip13_2_804">
<rect width="106.274" height="106.921" fill="white" transform="translate(1180.06)"/>
</clipPath>
<clipPath id="clip14_2_804">
<rect width="106.274" height="106.921" fill="white" transform="translate(1177.79 371.079)"/>
</clipPath>
<clipPath id="clip15_2_804">
<rect width="105.137" height="105.778" fill="white" transform="translate(739.619 54.3182)"/>
</clipPath>
<clipPath id="clip16_2_804">
<rect width="106.274" height="106.921" fill="white" transform="translate(980.014 205.266)"/>
</clipPath>
<clipPath id="clip17_2_804">
<rect width="108.547" height="109.208" fill="white" transform="translate(781.674 879.493)"/>
</clipPath>
<clipPath id="clip18_2_804">
<rect width="106.274" height="106.921" fill="white" transform="translate(1180.06 533)"/>
</clipPath>
<clipPath id="clip19_2_804">
<rect width="106.274" height="106.921" fill="white" transform="translate(1177.79 904.079)"/>
</clipPath>
<clipPath id="clip20_2_804">
<rect width="105.137" height="105.778" fill="white" transform="translate(739.619 587.318)"/>
</clipPath>
<clipPath id="clip21_2_804">
<rect width="106.274" height="106.921" fill="white" transform="translate(980.014 738.266)"/>
</clipPath>
</defs>
</svg>
